<svg id="Layer_1" data-name="Layer 1" xmlns="http://www.w3.org/2000/svg" viewBox="0 0 966.2 511.52"><defs><style>.cls-1{fill:#fff;}</style></defs><path class="cls-1" d="M454.94,157.62v99.81H432.23V157.62H389.56V134H497.61v23.63Zm-25.09,9.7H398.72L389.56,160h40.29Zm65-12.45V136.74H392.31v18.13H435v99.81H452.2V154.87Zm-2.93-15,.55.92-.55.92H401.65l-6,.73-.92-1.65.92-.92Zm-90.29,5h90.29l.55.91-.55.92H401.65l-6,.73-.92-1.65.92-1.64Zm0,4.94h90.29l.55.92-.55.92H395.61l-.92-.92.92-1.65Zm64.83,17.58v99.81H441.39l-9.16-7.32h25.09V160H500V134l9.16,7.33v26Zm-22.16-12.45h4.95l.54.92-.54.91h-4.95l-6,.74-.92-1.65.92-1.65Zm0,4.95h4.95l.54.91-.54.92h-4.95l-6,.73-.92-1.65.92-1.65Zm0,4.94h4.95l.54.92-.54.91h-4.95l-6,.73-.92-1.64.92-1.65Zm0,5.13h4.95l.54.91-.54.92h-4.95l-6,.73-.92-1.65.92-1.64Zm0,4.94h4.95l.54.92-.54.91h-4.95l-6,.92-.92-1.83.92-1.65Zm0,4.95h4.95l.54.91-.54.92h-4.95l-6,.73-.92-1.65.92-1.65Zm0,5.13h4.95l.54.91-.54.92h-4.95l-6,.73-.92-1.65.92-1.46Zm0,4.94h4.95l.54.92-.54.91h-4.95l-6,.73-.92-1.64.92-1.65Zm0,4.94h4.95l.54.92-.54.92h-4.95l-6,.73-.92-1.65.92-1.65Zm0,5.13h4.95l.54.92-.54.91h-4.95l-6,.74-.92-1.65.92-1.65Zm0,5h4.95l.54.91-.54.92h-4.95l-6,.73-.92-1.65.92-1.65Zm0,4.94h4.95l.54.92-.54.91h-4.95l-6,.74-.92-1.65.92-1.65Zm0,5.13h4.95l.54.92-.54.91h-4.95l-6,.73-.92-1.64.92-1.65Zm0,4.94h4.95l.54.92-.54.92h-4.95l-6,.73-.92-1.65.92-1.65Zm0,5h4.95l.54.92-.54.91h-4.95l-6,.73-.92-1.64.92-1.65Zm0,5.13h4.95l.54.91-.54.92h-4.95l-6,.73-.92-1.65.92-1.65Zm0,4.94h4.95l.54.92-.54.91h-4.95l-6,.92-.92-1.83.92-1.65Zm0,4.95h4.95l.54.91-.54.92h-4.95l-6,.73-.92-1.65.92-1.65Zm0,4.94h4.95l.54.92-.54.91h-4.95l-6,.74-.92-1.65.92-1.65Zm0,5h4.95l.54.91-.54.92h-11l-.92-.92.92-1.65Z" transform="translate(-93.16 -133.99)"/><path class="cls-1" d="M604,257.43V207.61H541.2v49.82H518.49V134H541.2v50H604V134h22.71V257.43Zm-2.38-40.11h-48.9v49.81H527.65l-9.16-7.32h25.09V210h58ZM624,254.68V136.74H606.76v50H538.45v-50H521.23V254.68h17.22V204.87h68.31v49.81ZM535.34,139.85l.55.92-.55.92h-5l-6,.73-.92-1.65.92-.92Zm-5,5h5l.55.91-.55.92h-5l-6,.73-.92-1.65.92-1.64Zm0,4.94h5l.55.92-.55.92h-5l-6,.73-.92-1.65.92-1.65Zm0,5.13h5l.55.92-.55.91h-5l-6,.74-.92-1.65.92-1.65Zm0,4.95h5l.55.91-.55.92h-5l-6,.73-.92-1.65.92-1.65Zm0,4.94h5l.55.92-.55.91h-5l-6,.73-.92-1.64.92-1.65Zm0,5.13h5l.55.91-.55.92h-5l-6,.73-.92-1.65.92-1.64Zm0,4.94h5l.55.92-.55.91h-5l-6,.92-.92-1.83.92-1.65Zm0,4.95h5l.55.91-.55.92h-5l-6,.73-.92-1.65.92-1.65Zm0,5.13h5l.55.91-.55.92h-5l-6,.73-.92-1.65.92-1.46Zm0,4.94h90.47l.55.92-.55.91H530.39l-6,.73-.92-1.64.92-1.65Zm0,4.94h90.47l.55.92-.55.92H530.39l-6,.73-.92-1.65.92-1.65Zm0,5.13h90.47l.55.92-.55.91H530.39l-6,.74-.92-1.65.92-1.65Zm0,5h5l.55.91-.55.92h-5l-6,.73-.92-1.65.92-1.65Zm0,4.94h5l.55.92-.55.91h-5l-6,.74-.92-1.65.92-1.65Zm0,5.13h5l.55.92-.55.91h-5l-6,.73-.92-1.64.92-1.65Zm0,4.94h5l.55.92-.55.92h-5l-6,.73-.92-1.65.92-1.65Zm0,5h5l.55.92-.55.91h-5l-6,.73-.92-1.64.92-1.65Zm0,5.13h5l.55.91-.55.92h-5l-6,.73-.92-1.65.92-1.65Zm0,4.94h5l.55.92-.55.91h-5l-6,.92-.92-1.83.92-1.65Zm0,4.95h5l.55.91-.55.92h-5l-6,.73-.92-1.65.92-1.65Zm0,4.94h5l.55.92-.55.91h-5l-6,.74-.92-1.65.92-1.65Zm0,5h5l.55.91-.55.92h-11l-.92-.92.92-1.65Zm22.34-68.13h-9.15V134l9.15,7.33Zm60.44,85.52L604,259.81H629.1V134l9.16,7.33V267.13Zm-3.3-125.44-.55-.92.55-.92h10.81l.55.92-.55.92Zm0,4.94-.55-.92.55-.91h10.81l.55.91-.55.92Zm0,5-.55-.92.55-.92h10.81l.55.92-.55.92Zm0,5.12-.55-.91.55-.92h11l.55.92-.55.91Zm0,5-.55-.92.55-.91h11l.55.91-.55.92Zm0,4.94-.55-.91.55-.92h11l.55.92-.55.91Zm0,5.13-.55-.92.55-.91h11l.55.91-.55.92Zm0,4.94-.55-.91.55-.92h11l.55.92-.55.91Zm0,5-.55-.92.55-.91h11l.55.91-.55.92Zm0,5.13-.55-.92.55-.91h11l.55.91-.55.92Zm0,20-.55-.92.55-.91h11l.55.91-.55.92Zm0,4.94-.55-.91.55-.92h11l.55.92-.55.91Zm0,5.13-.55-.91.55-.92h11l.55.92-.55.91Zm0,4.95-.55-.92.55-.92h11l.55.92-.55.92Zm0,4.94-.55-.91.55-.92h11l.55.92-.55.91Zm0,5.13-.55-.92.55-.91h11l.55.91-.55.92Zm0,4.94-.55-.91.55-.92h11l.55.92-.55.91Zm0,5-.55-.92.55-.91h11l.55.91-.55.92Zm0,4.94-.55-.91.55-.92h11l.55.92-.55.91Zm0,4.95-.55-.92.55-.91h11l.55.91-.55.92Z" transform="translate(-93.16 -133.99)"/><path class="cls-1" d="M656,257.43V134h82.23v23.63H678.73v21.24h54v23.81h-54V234h63.18v23.44Zm9.16,9.7L656,259.81h88.27V234l9.16,7.32v25.82Zm74-12.45v-18H676V199.92h54V181.61H676V154.87H735.5V136.74H658.77V254.68Zm-6.77-114.83.55.92-.55.92H667.92l-6,.73-.92-1.65.92-.92Zm-64.47,5h64.47l.55.91-.55.92H667.92l-6,.73-.92-1.65.92-1.64Zm0,4.94h64.47l.55.92-.55.92H667.92l-6,.73-.92-1.65.92-1.65Zm0,5.13h5l.55.92-.55.91h-5l-6,.74-.92-1.65.92-1.65Zm0,4.95h5l.55.91-.55.92h-5l-6,.73-.92-1.65.92-1.65Zm0,4.94h5l.55.92-.55.91h-5l-6,.73-.92-1.64.92-1.65Zm0,5.13h5l.55.91-.55.92h-5l-6,.73L661,170.8l.92-1.64Zm0,4.94h5l.55.92-.55.91h-5l-6,.92-.92-1.83.92-1.65Zm0,4.95h5l.55.91-.55.92h-5l-6,.73-.92-1.65.92-1.65Zm0,5.13h59l.55.91-.55.92h-59l-6,.73-.92-1.65.92-1.46Zm0,4.94h59l.55.92-.55.91h-59l-6,.73-.92-1.64.92-1.65Zm0,4.94h59l.55.92-.55.92h-59l-6,.73-.92-1.65.92-1.65Zm0,5.13h5l.55.92-.55.91h-5l-6,.74-.92-1.65.92-1.65Zm0,5h5l.55.91-.55.92h-5l-6,.73-.92-1.65.92-1.65Zm0,4.94h5l.55.92-.55.91h-5l-6,.74-.92-1.65.92-1.65Zm0,5.13h5l.55.92-.55.91h-5l-6,.73-.92-1.64.92-1.65Zm0,4.94h5l.55.92-.55.92h-5l-6,.73L661,220.8l.92-1.65Zm0,5h5l.55.92-.55.91h-5l-6,.73-.92-1.64.92-1.65Zm0,5.13h5l.55.91-.55.92h-5l-6,.73-.92-1.65.92-1.65Zm0,4.94h5l.55.92-.55.91h-5l-6,.92-.92-1.83.92-1.65Zm0,4.95h68.31l.55.91-.55.92H667.92l-6,.73-.92-1.65.92-1.65Zm0,4.94h68.31l.55.92-.55.91H667.92l-6,.74-.92-1.65.92-1.65Zm0,5h68.31l.55.91-.55.92H661.88l-.92-.92.92-1.65ZM740.63,160V134l9.16,7.33v26H690.27v9.16h-9.16V160Zm-5.5,45.05V178.86l9.16,7.33v26.19h-54v19.23h-9.16V205.05Z" transform="translate(-93.16 -133.99)"/><path class="cls-1" d="M176.67,359.54c-8.24-14.47-20.51-17.22-30.21-17.22-13.56,0-21.43,4.58-21.43,12.46,0,23.8,68.86,6.4,68.86,56,0,23.26-22.16,37-48.72,37-20.87,0-38.27-5.13-52-23.26l17-16.3c8.6,13.37,21.79,16.85,35.34,16.85,12.64,0,24.18-4.21,24.18-13.92,0-24.17-68.86-7.69-68.86-55.67,0-18.5,14.83-35.9,45.23-35.9,14.47,0,33.51,3.67,47.43,23.44Zm13.19-16.67C178,326.21,160,322.36,146.09,322.36c-28.39,0-42.49,16.12-42.49,33.15,0,46.33,68.86,28,68.86,55.49,0,11.54-12.45,16.85-26.92,16.85s-27.65-4-35.71-15.57L97,424.92c14.1,16.84,31.13,20,48.16,20,24.91,0,46-12.64,46-34.07,0-48.53-68.86-28.93-68.86-56,0-9.53,8.43-15.2,24.18-15.2,10.62,0,23.07,3.29,30.76,15.74Zm-81.5,82.6h13.92l1.47.91-.55.92H108.36l-6.22.73-.92-1.65.92-1.65Zm3.12-5h3.11l1.47.92-.55.91h-4l-6.23.92-.91-1.83.91-1.65Zm1.65-65h6.22l.55.91-.55.92h-6.22l-6.23.73-.92-1.65.92-1.64Zm.36-5.13h6.05l.55.92-.55.91h-6.05l-6.22.73-.92-1.64.92-1.65Zm0,10.07h7.14l.55.92-.55.91h-7.14l-6.22.92-.92-1.83.92-1.65Zm-6.77,19.78c19,19.6,58.05,15.93,60.25,30C152.32,406.42,117,401.11,106.72,380.23Zm8-34.79h7.15l.55.91-.55.92h-7.15l-6.22.73-.92-1.65.92-1.65Zm.19,20h9.34l.55.91-.55.92H115l-6.23.73-.92-1.65.92-1.65Zm0,65h63.36l.55.92-.55.91H115l-6.23.73-.92-1.64.92-1.65ZM109.28,418l-.55-1.47.55-1.46,1.47.55.54.91-.54.92Zm8.06-77.47h9.15l.55.92-1.09.91h-8.61l-6.23.73-.91-1.64.91-1.65Zm.55,30h15.75l.55.92-.55.92H117.89l-6.23.73-.91-1.65.91-1.46ZM196.27,411a42.26,42.26,0,0,0-4.58-20c8.79,7.69,13.74,15,13.74,27.28,0,18.5-16.3,39.19-51.1,39.19-14.83,0-30.58-4.21-42.49-14.28,9,4.76,20.88,7,33.33,7C171.73,450.19,196.27,436.82,196.27,411Zm-83.51-4.58,17.76,7.69a30.45,30.45,0,0,0,7.7,8.61C126.13,420.52,117.7,414.11,112.76,406.42Zm8.61-71.06H180l.55.92-.55.91h-58.6l-6.23.74-.91-1.65.91-1.65Zm.55,40.11h28.57l.55.91-.55.92H121.92l-6.23.73-.92-1.65.92-1.64Zm.73,59.89H171l.55.91-.55.92H122.65l-6.23.73-.91-1.65.91-1.65Zm5.13-104.94h44.87l.54.91-.54.92H127.78l-6.23.73-.92-1.65,1.1-1.64Zm1.28,50h38.46l.55.92-.55.92H129.06l-6.23.73-.91-1.65.91-1.65Zm17.4-35.71c8.42,0,15.38,2.38,21.79,8.61A42.18,42.18,0,0,0,158,352c-13.55,0-21.42,4.58-21.42,12.27-5.68-1.83-9.16-4.58-9.16-9.16C127.41,349.28,135.29,344.7,146.46,344.7ZM136.2,440.3h23.08l.55.92-.55.91H130l-.91-.91.91-1.65Zm24.91-114.83.55.92-.55.91h-24l-6.23.74-.92-1.65.92-.92Zm-18.87,60.07h34.25l.55.92-.55.91H142.24l-6.22.74-.92-1.65.92-1.65Zm18.32,4.95h21.61l.55.91-.55.92H160.56l-6.23.73-.91-1.65.91-1.65Zm6.77-48.17-1.46-.91.55-.92h19l.55.92-.55.91Zm6.23,83.15h9.89l.55.91-.55.92h-9.89l-6.23.73-.91-1.65,1.83-1.65Zm.73-30h11l.55.92-.55.91h-11L169,398l-1.83-1.65.92-1.65Zm4.58,25.09h7.33l.55.92-.55.91h-7.33l-6.22.92-.92-1.83.92-1.65Zm.55-20h7.69l.55.91-.55.92h-7.69l-6.23.73-.91-1.65.91-1.64Zm-5.13-53.29-.73-.92.55-.91h8.42l.55.91-.55.92Zm7.15,58.23H188l.55.92-.55.92h-6.59l-6.23.73-.92-1.65.92-1.65Zm.18,10.08h5.86l.55.91-.55.92h-5.86l-6.23.73-.91-1.65.91-1.65Zm.55-5.13h6l.55.91-.55.92h-6l-6.59.73-.92-1.65.92-1.64Zm-4.95-59.15-.55-.92.55-.92h1.47l.55.92-.55.92Zm4.95-23.81c9.7,5.49,19.78,13.18,25.45,19.78l-22.34,20-7.87-4.76,20.32-18.87C194.26,338.84,189.68,333.9,182.17,327.49Z" transform="translate(-93.16 -133.99)"/><path class="cls-1" d="M306.7,445.43V395.61H243.88v49.82H221.17V322h22.71v50H306.7V322h22.71V445.43Zm-2.38-40.11h-48.9v49.81H230.33l-9.16-7.32h25.09V398h58.06Zm22.34,37.36V324.74H309.45v50H241.14v-50H223.92V442.68h17.22V392.87h68.31v49.81ZM238,327.85l.55.92-.55.92h-4.94l-6.05.73-.91-1.65.91-.92Zm-4.94,4.95H238l.55.91-.55.92h-4.94l-6.05.73-.91-1.65.91-1.64Zm0,4.94H238l.55.92-.55.92h-4.94l-6.05.73-.91-1.65L227,337Zm0,5.13H238l.55.92-.55.91h-4.94l-6.05.74-.91-1.65.91-1.65Zm0,4.95H238l.55.91-.55.92h-4.94l-6.05.73-.91-1.65.91-1.65Zm0,4.94H238l.55.92-.55.91h-4.94l-6.05.73-.91-1.64L227,352Zm0,5.13H238l.55.91-.55.92h-4.94l-6.05.73-.91-1.65.91-1.64Zm0,4.94H238l.55.92-.55.91h-4.94l-6.05.92-.91-1.83.91-1.65Zm0,4.95H238l.55.91-.55.92h-4.94l-6.05.73-.91-1.65L227,367Zm0,5.13H238l.55.91-.55.92h-4.94l-6.05.73-.91-1.65.91-1.46Zm0,4.94h90.47l.55.92-.55.91H233.08l-6.05.73-.91-1.64.91-1.65Zm0,4.94h90.47l.55.92-.55.92H233.08l-6.05.73-.91-1.65.91-1.65Zm0,5.13h90.47l.55.92-.55.91H233.08l-6.05.74-.91-1.65.91-1.65Zm0,4.95H238l.55.91-.55.92h-4.94l-6.05.73-.91-1.65.91-1.65Zm0,4.94H238l.55.92-.55.91h-4.94l-6.05.74-.91-1.65.91-1.65Zm0,5.13H238l.55.92-.55.91h-4.94l-6.05.73-.91-1.64.91-1.65Zm0,4.94H238l.55.92-.55.92h-4.94l-6.05.73-.91-1.65.91-1.65Zm0,4.95H238l.55.92-.55.91h-4.94l-6.05.73-.91-1.64.91-1.65Zm0,5.13H238l.55.91-.55.92h-4.94l-6.05.73-.91-1.65.91-1.65Zm0,4.94H238l.55.92-.55.91h-4.94l-6.05.92-.91-1.83.91-1.65Zm0,5H238l.55.91-.55.92h-4.94l-6.05.73-.91-1.65.91-1.65Zm0,4.94H238l.55.92-.55.91h-4.94l-6.05.74-.91-1.65.91-1.65Zm0,4.95H238l.55.91-.55.92H227l-.91-.92L227,437Zm22.34-68.13h-9.16V322l9.16,7.33Zm60.44,85.52-9.16-7.32h25.09V322l9.15,7.33V455.13Zm-3.3-125.44-.55-.92.55-.92h10.8l.55.92-.55.92Zm0,4.94-.55-.92.55-.91h10.8l.55.91-.55.92Zm0,4.95-.55-.92.55-.92h10.8l.55.92-.55.92Zm0,5.12-.55-.91.55-.92h11l.55.92-.55.91Zm0,4.95-.55-.92.55-.91h11l.55.91-.55.92Zm0,4.94-.55-.91.55-.92h11l.55.92-.55.91Zm0,5.13-.55-.92.55-.91h11l.55.91-.55.92Zm0,4.94-.55-.91.55-.92h11l.55.92-.55.91Zm0,4.95-.55-.92.55-.91h11l.55.91-.55.92Zm0,5.13-.55-.92.55-.91h11l.55.91-.55.92Zm0,20-.55-.92.55-.91h11l.55.91-.55.92Zm0,4.94-.55-.91.55-.92h11l.55.92-.55.91Zm0,5.13-.55-.91.55-.92h11l.55.92-.55.91Zm0,5-.55-.92.55-.92h11l.55.92-.55.92Zm0,4.94-.55-.91.55-.92h11l.55.92-.55.91Zm0,5.13-.55-.92.55-.91h11l.55.91-.55.92Zm0,4.94-.55-.91.55-.92h11l.55.92-.55.91Zm0,4.95-.55-.92.55-.91h11l.55.91-.55.92Zm0,4.94-.55-.91.55-.92h11l.55.92-.55.91Zm0,4.95-.55-.92.55-.91h11l.55.91-.55.92Z" transform="translate(-93.16 -133.99)"/><path class="cls-1" d="M373,455.13l-9.16-7.32h25.09V322l9.16,7.33V455.13Zm-9.16-9.7V322h22.71V445.43Zm20-2.75V324.74H366.58V442.68Zm-3.12-114.83.55.92-.55.92h-4.94l-6.05.73-.91-1.65.91-.92Zm-4.94,4.95h4.94l.55.91-.55.92h-4.94l-6.05.73-.91-1.65.91-1.64Zm0,4.94h4.94l.55.92-.55.92h-4.94l-6.05.73-.91-1.65.91-1.65Zm0,5.13h4.94l.55.92-.55.91h-4.94l-6.05.74-.91-1.65.91-1.65Zm0,4.95h4.94l.55.91-.55.92h-4.94l-6.05.73-.91-1.65.91-1.65Zm0,4.94h4.94l.55.92-.55.91h-4.94l-6.05.73-.91-1.64.91-1.65Zm0,5.13h4.94l.55.91-.55.92h-4.94l-6.05.73-.91-1.65.91-1.64Zm0,4.94h4.94l.55.92-.55.91h-4.94l-6.05.92-.91-1.83.91-1.65Zm0,4.95h4.94l.55.91-.55.92h-4.94l-6.05.73-.91-1.65.91-1.65Zm0,5.13h4.94l.55.91-.55.92h-4.94l-6.05.73-.91-1.65.91-1.46Zm0,4.94h4.94l.55.92-.55.91h-4.94l-6.05.73-.91-1.64.91-1.65Zm0,4.94h4.94l.55.92-.55.92h-4.94l-6.05.73-.91-1.65.91-1.65Zm0,5.13h4.94l.55.92-.55.91h-4.94l-6.05.74-.91-1.65.91-1.65Zm0,4.95h4.94l.55.91-.55.92h-4.94l-6.05.73-.91-1.65.91-1.65Zm0,4.94h4.94l.55.92-.55.91h-4.94l-6.05.74-.91-1.65.91-1.65Zm0,5.13h4.94l.55.92-.55.91h-4.94l-6.05.73-.91-1.64.91-1.65Zm0,4.94h4.94l.55.92-.55.92h-4.94l-6.05.73-.91-1.65.91-1.65Zm0,4.95h4.94l.55.92-.55.91h-4.94l-6.05.73-.91-1.64.91-1.65Zm0,5.13h4.94l.55.91-.55.92h-4.94l-6.05.73-.91-1.65.91-1.65Zm0,4.94h4.94l.55.92-.55.91h-4.94l-6.05.92-.91-1.83.91-1.65Zm0,5h4.94l.55.91-.55.92h-4.94l-6.05.73-.91-1.65.91-1.65Zm0,4.94h4.94l.55.92-.55.91h-4.94l-6.05.74-.91-1.65.91-1.65Zm0,4.95h4.94l.55.91-.55.92h-11l-.91-.92.91-1.65Z" transform="translate(-93.16 -133.99)"/><path class="cls-1" d="M493.13,445.43l-30.4-44.87H443.5v44.87H420.79V322h49.26c25.27,0,43.59,13.74,43.59,37.73,0,20-13.19,32-26.37,36.63l34.06,49.08Zm-31.32-42.49,4.94,7.33H455v44.86H429.94l-9.15-7.32h25.09V402.94ZM516,442.68l-33-47.8c15.57-4.39,27.84-16.66,27.84-35.16,0-22.16-17-35-40.84-35H423.53V442.68h17.22V397.81h23.44l30.4,44.87ZM483.79,327.85l.55.92-.55.92h-51.1l-6,.73-.92-1.65.92-.92Zm-51.1,4.95H495l.55.91-.55.92H432.69l-6,.73-.92-1.65.92-1.64Zm0,4.94h68.13l.55.92-.55.92H432.69l-6,.73-.92-1.65.92-1.65Zm0,5.13h4.95l.55.92-.55.91h-4.95l-6,.74-.92-1.65.92-1.65Zm0,4.95h4.95l.55.91-.55.92h-4.95l-6,.73-.92-1.65.92-1.65Zm0,4.94h4.95l.55.92-.55.91h-4.95l-6,.73-.92-1.64.92-1.65Zm0,5.13h4.95l.55.91-.55.92h-4.95l-6,.73-.92-1.65.92-1.64Zm0,4.94h4.95l.55.92-.55.91h-4.95l-6,.92-.92-1.83.92-1.65Zm0,4.95h4.95l.55.91-.55.92h-4.95l-6,.73-.92-1.65.92-1.65Zm0,5.13h4.95l.55.91-.55.92h-4.95l-6,.73-.92-1.65.92-1.46Zm0,4.76h4.95l.55.91-.55.92h-4.95l-6,.73-.92-1.65.92-1.46Zm0,5.12h65l.55.92-.55.92h-65l-6,.73-.92-1.65.92-1.65Zm0,5.13H490.2l.55.92-.55.91H432.69l-6,.74-.92-1.65.92-1.65Zm0,4.95h48l.55.91-.55.92h-48l-6,.73-.92-1.65.92-1.65Zm0,4.94h4.95l.55.92-.55.91h-4.95l-6,.74-.92-1.65.92-1.65Zm0,5.13h4.95l.55.92-.55.91h-4.95l-6,.73-.92-1.64.92-1.65Zm0,4.94h4.95l.55.92-.55.92h-4.95l-6,.73-.92-1.65.92-1.65Zm0,4.95h4.95l.55.92-.55.91h-4.95l-6,.73-.92-1.64.92-1.65Zm0,5.13h4.95l.55.91-.55.92h-4.95l-6,.73-.92-1.65.92-1.65Zm0,4.94h4.95l.55.92-.55.91h-4.95l-6,.92-.92-1.83.92-1.65Zm0,5h4.95l.55.91-.55.92h-4.95l-6,.73-.92-1.65.92-1.65Zm0,4.94h4.95l.55.92-.55.91h-4.95l-6,.74-.92-1.65.92-1.65Zm0,4.95h4.95l.55.91-.55.92h-11l-.92-.92.92-1.65Zm35.9-58.24H440.75V342.69h28.94c14.46,0,22.52,5.68,22.52,17.21C492.21,373.09,484,379.5,468.59,379.5Zm1.1-33.88H443.5v31.13h25.09c13.73,0,20.87-5.49,20.87-16.85C489.46,350.2,482.5,345.62,469.69,345.62ZM445.88,348H469.5c10.26,0,15,2.75,16.85,7.69a45.82,45.82,0,0,0-5.13-.37H455v19.05h-9.15Zm22.34,51.64-.55-.91.55-.92H482.5l.55.92-.55.91Zm3.3,5.13-.55-.91.55-.92H486l.55.92-.55.91Zm3.48,5-.55-.92.55-.92h14.46l.55.92-.55.92Zm3.29,4.94-.55-.91.55-.92h14.47l.55.92-.55.91Zm3.66,5.13-.54-.92L482,418h14.29l.55.91-.55.92Zm1.47-40.29-.55-.73,1.47-.92h17.94l.55.92-.55.73Zm2.2-34.8-1.47-.91.55-.92h19.6l.55.92-.55.91Zm-.55,80-.55-.91.55-.92h14.65l.55.92-.55.91Zm3.48,4.95-.55-.92.55-.91h14.83l.55.91-.55.92Zm1.65-54.94-.55-.92.55-.91H505l.55.91-.55.92Zm13.73,80.39-9.16-7.32h31l-34.79-50.18C504.48,392,516,382.06,516,359.9c0-7.51-1.83-16.3-6-22.16a39.58,39.58,0,0,1,15.2,31.69c0,15.93-10.81,27.65-21.8,33.33L540,455.13ZM491.48,349.65l-.55-.92.55-.91h14.83l.55.91-.55.92Zm.18,85-.55-.91.55-.92h15l.55.92-.55.91Zm2-65-.55-.92.55-.91h13l.55.91-.55.92Zm.73-15-.55-.91.55-.92h13l.55.92-.55.91Zm.73,10.07-.55-.91.55-.92h12.45l.55.92-.55.91Zm0,74.91-.55-.92.55-.91H510l.54.91-.54.92Zm.18-79.85-.55-.92.55-.91h12.46l.55.91-.55.92Z" transform="translate(-93.16 -133.99)"/><path class="cls-1" d="M546.78,445.43V322h22.71v51.47L618.2,322h31.69l-59.16,61.54,59,61.9H617.29l-47.8-51.83v51.83Zm9.16,9.7-9.16-7.32h25.09V399.64L581,410.08v45.05Zm10.8-12.45V386.82l51.83,55.86h24.72l-56.4-59.15,56.4-58.79h-23.8l-52.75,55.67V324.74H549.53V442.68Zm-3.11-114.83.55.92-.55.92h-5l-6,.73-.91-1.65.91-.92Zm-5,4.95h5l.55.91-.55.92h-5l-6,.73-.91-1.65.91-1.64Zm0,4.94h5l.55.92-.55.92h-5l-6,.73-.91-1.65.91-1.65Zm0,5.13h5l.55.92-.55.91h-5l-6,.74-.91-1.65.91-1.65Zm0,4.95h5l.55.91-.55.92h-5l-6,.73-.91-1.65.91-1.65Zm0,4.94h5l.55.92-.55.91h-5l-6,.73-.91-1.64.91-1.65Zm0,5.13h5l.55.91-.55.92h-5l-6,.73-.91-1.65.91-1.64Zm0,4.94h5l.55.92-.55.91h-5l-6,.92-.91-1.83.91-1.65Zm0,4.95h5l.55.91-.55.92h-5l-6,.73-.91-1.65.91-1.65Zm0,5.13h5l.55.91-.55.92h-5l-6,.73-.91-1.65.91-1.46Zm0,4.94h5l.55.92-.55.91h-5l-6,.73-.91-1.64.91-1.65Zm0,4.94h24.55l.54.92-.54.92H558.68l-6,.73-.91-1.65.91-1.65Zm0,5.13h5l.55.92-.55.91h-5l-6,.74-.91-1.65.91-1.65Zm0,4.95h5l.55.91-.55.92h-5l-6,.73-.91-1.65.91-1.65Zm0,4.94h5l.55.92-.55.91h-5l-6,.74-.91-1.65.91-1.65Zm0,5.13h5l.55.92-.55.91h-5l-6,.73-.91-1.64.91-1.65Zm0,4.94h5l.55.92-.55.92h-5l-6,.73-.91-1.65.91-1.65Zm0,4.95h5l.55.92-.55.91h-5l-6,.73-.91-1.64.91-1.65Zm0,5.13h5l.55.91-.55.92h-5l-6,.73-.91-1.65.91-1.65Zm0,4.94h5l.55.92-.55.91h-5l-6,.92-.91-1.83.91-1.65Zm0,5h5l.55.91-.55.92h-5l-6,.73-.91-1.65.91-1.65Zm0,4.94h5l.55.92-.55.91h-5l-6,.74-.91-1.65.91-1.65Zm0,4.95h5l.55.91-.55.92h-11l-.91-.92.91-1.65Zm12.64-58.06-.55-.91.55-.92h16.85l.55.92-.55.91Zm.37,10.07-.55-.91.55-.92h17l.55.92-.55.91Zm9.34-32-9.16,9.7V322l9.16,7.33Zm-4.95,17-.55-.92.55-.91h16.67l.55.91-.55.92Zm.19,20-.55-.92.55-.91h17l.55.91-.55.92ZM581,369.61l-.55-.92.55-.91h16.66l.55.91-.55.92Zm0,30-.55-.91.55-.92h17l.55.92-.55.91Zm4.58-35-.55-.91.55-.92h16.84l.55.92-.55.91Zm.18,40.11-.55-.91.55-.92H603l.55.92-.55.91Zm4.58-45-.55-.92.55-.91H607l.55.91-.55.92Zm0,50-.55-.92.55-.92h17.4l.54.92-.54.92Zm3.84-26.19,58.61-60.62,6.77,4.39L604.1,384.81l66.48,70.32H628.83l-9.16-7.32H655.2Zm.92,31.13-.55-.91.55-.92h17.58l.55.92-.55.91Zm.18-60.07-.55-.91.55-.92h16.85l.55.92-.55.91Zm4.58-4.94-.55-.92.55-.91h16.85l.55.91-.55.92Zm0,70.14-.55-.92.55-.91h17.58l.55.91-.55.92Zm4.58,4.94-.55-.91.55-.92h17.76l.55.92-.55.91Zm.18-80-.55-.91.55-.92H621.5l.55.92-.55.91Zm4.4,85-.55-.92.55-.91h17.76l.55.91-.55.92Zm.18-90.1-.55-.92.55-.92h17.22l.55.92-.55.92Zm4.58,95-.55-.91.55-.92h18l.55.92-.55.91Zm.18-100-.55-.92.55-.91h17.22l.55.91-.55.92Zm4.58,104.94-.55-.92.55-.91h17.76l.55.91-.55.92Zm.37-109.88-.55-.92.55-.92h16.85l.54.92-.54.92Z" transform="translate(-93.16 -133.99)"/><path class="cls-1" d="M672,445.43V322h82.23v23.63H694.75v21.24h54v23.81h-54V422h63.18v23.44Zm9.16,9.7L672,447.81h88.27V422l9.16,7.32v25.82Zm74-12.45V424.73H692V387.92h54V369.61H692V342.87h59.52V324.74H674.79V442.68Zm-6.78-114.83.55.92-.55.92H684l-6.05.73-.91-1.65.91-.92ZM684,332.8h64.46l.55.91-.55.92H684l-6.05.73-.91-1.65.91-1.64Zm0,4.94h64.46l.55.92-.55.92H684l-6.05.73-.91-1.65.91-1.65Zm0,5.13h4.94l.55.92-.55.91H684l-6.05.74-.91-1.65.91-1.65Zm0,4.95h4.94l.55.91-.55.92H684l-6.05.73-.91-1.65.91-1.65Zm0,4.94h4.94l.55.92-.55.91H684l-6.05.73-.91-1.64.91-1.65Zm0,5.13h4.94l.55.91-.55.92H684l-6.05.73L677,358.8l.91-1.64Zm0,4.94h4.94l.55.92-.55.91H684l-6.05.92-.91-1.83.91-1.65Zm0,4.95h4.94l.55.91-.55.92H684l-6.05.73-.91-1.65.91-1.65Zm0,5.13h59l.55.91-.55.92H684l-6.05.73-.91-1.65.91-1.46Zm0,4.94h59l.55.92-.55.91H684l-6.05.73-.91-1.64.91-1.65Zm0,4.94h59l.55.92-.55.92H684l-6.05.73-.91-1.65.91-1.65Zm0,5.13h4.94l.55.92-.55.91H684l-6.05.74-.91-1.65.91-1.65Zm0,4.95h4.94l.55.91-.55.92H684l-6.05.73-.91-1.65.91-1.65Zm0,4.94h4.94l.55.92-.55.91H684l-6.05.74-.91-1.65.91-1.65Zm0,5.13h4.94l.55.92-.55.91H684l-6.05.73-.91-1.64.91-1.65Zm0,4.94h4.94l.55.92-.55.92H684l-6.05.73L677,408.8l.91-1.65Zm0,4.95h4.94l.55.92-.55.91H684l-6.05.73-.91-1.64.91-1.65Zm0,5.13h4.94l.55.91-.55.92H684l-6.05.73-.91-1.65.91-1.65Zm0,4.94h4.94l.55.92-.55.91H684l-6.05.92-.91-1.83.91-1.65Zm0,5h68.31l.55.91-.55.92H684l-6.05.73-.91-1.65.91-1.65Zm0,4.94h68.31l.55.92-.55.91H684l-6.05.74-.91-1.65.91-1.65Zm0,4.95h68.31l.55.91-.55.92H677.9l-.91-.92.91-1.65ZM756.65,348V322l9.16,7.33v26H706.29v9.16h-9.16V348Zm-5.49,45.05V366.86l9.15,7.33v26.19h-54v19.23h-9.16V393.05Z" transform="translate(-93.16 -133.99)"/><path class="cls-1" d="M859,445.43l-30.4-44.87H809.39v44.87H786.68V322H836c25.27,0,43.58,13.74,43.58,37.73,0,20-13.18,32-26.37,36.63l34.07,49.08Zm-31.31-42.49,4.94,7.33H820.93v44.86H795.84l-9.16-7.32h25.09V402.94Zm54.2,39.74-33-47.8c15.57-4.39,27.84-16.66,27.84-35.16,0-22.16-17-35-40.84-35H789.43V442.68h17.22V397.81h23.44l30.4,44.87ZM849.68,327.85l.55.92-.55.92H798.59l-6.05.73-.91-1.65.91-.92Zm-51.09,4.95h62.26l.55.91-.55.92H798.59l-6.05.73-.91-1.65.91-1.64Zm0,4.94h68.12l.55.92-.55.92H798.59l-6.05.73-.91-1.65.91-1.65Zm0,5.13h4.94l.55.92-.55.91h-4.94l-6.05.74-.91-1.65.91-1.65Zm0,4.95h4.94l.55.91-.55.92h-4.94l-6.05.73-.91-1.65.91-1.65Zm0,4.94h4.94l.55.92-.55.91h-4.94l-6.05.73-.91-1.64.91-1.65Zm0,5.13h4.94l.55.91-.55.92h-4.94l-6.05.73-.91-1.65.91-1.64Zm0,4.94h4.94l.55.92-.55.91h-4.94l-6.05.92-.91-1.83.91-1.65Zm0,4.95h4.94l.55.91-.55.92h-4.94l-6.05.73-.91-1.65.91-1.65Zm0,5.13h4.94l.55.91-.55.92h-4.94l-6.05.73-.91-1.65.91-1.46Zm0,4.76h4.94l.55.91-.55.92h-4.94l-6.05.73-.91-1.65.91-1.46Zm0,5.12h65l.55.92-.55.92h-65l-6.05.73-.91-1.65.91-1.65Zm0,5.13h57.5l.55.92-.55.91h-57.5l-6.05.74-.91-1.65.91-1.65Zm0,4.95h48l.55.91-.55.92h-48l-6.05.73-.91-1.65.91-1.65Zm0,4.94h4.94l.55.92-.55.91h-4.94l-6.05.74-.91-1.65.91-1.65Zm0,5.13h4.94l.55.92-.55.91h-4.94l-6.05.73-.91-1.64.91-1.65Zm0,4.94h4.94l.55.92-.55.92h-4.94l-6.05.73-.91-1.65.91-1.65Zm0,4.95h4.94l.55.92-.55.91h-4.94l-6.05.73-.91-1.64.91-1.65Zm0,5.13h4.94l.55.91-.55.92h-4.94l-6.05.73-.91-1.65.91-1.65Zm0,4.94h4.94l.55.92-.55.91h-4.94l-6.05.92-.91-1.83.91-1.65Zm0,5h4.94l.55.91-.55.92h-4.94l-6.05.73-.91-1.65.91-1.65Zm0,4.94h4.94l.55.92-.55.91h-4.94l-6.05.74-.91-1.65.91-1.65Zm0,4.95h4.94l.55.91-.55.92h-11l-.91-.92.91-1.65Zm35.89-58.24H806.65V342.69h28.93c14.47,0,22.53,5.68,22.53,17.21C858.11,373.09,849.87,379.5,834.48,379.5Zm1.1-33.88H809.39v31.13h25.09c13.74,0,20.88-5.49,20.88-16.85C855.36,350.2,848.4,345.62,835.58,345.62ZM811.77,348H835.4c10.25,0,15,2.75,16.85,7.69a45.82,45.82,0,0,0-5.13-.37H820.93v19.05h-9.16Zm22.35,51.64-.55-.91.55-.92H848.4l.55.92-.55.91Zm3.29,5.13-.55-.91.55-.92h14.47l.55.92-.55.91Zm3.48,5-.55-.92.55-.92h14.47l.55.92-.55.92Zm3.3,4.94-.55-.91.55-.92h14.47l.55.92-.55.91Zm3.66,5.13-.55-.92.55-.91h14.29l.54.91-.54.92Zm1.47-40.29-.55-.73,1.46-.92h17.95l.55.92-.55.73Zm2.19-34.8-1.46-.91.55-.92h19.59l.55.92-.55.91Zm-.55,80-.54-.91.54-.92h14.66l.54.92-.54.91Zm3.48,4.95-.55-.92.55-.91h14.84l.55.91-.55.92Zm1.65-54.94-.55-.92.55-.91h14.84l.55.91-.55.92Zm13.74,80.39-9.16-7.32h31l-34.8-50.18c13.56-5.68,25.09-15.57,25.09-37.73,0-7.51-1.83-16.3-6-22.16a39.58,39.58,0,0,1,15.2,31.69c0,15.93-10.8,27.65-21.79,33.33l36.63,52.37ZM857.37,349.65l-.55-.92.55-.91h14.84l.55.91-.55.92Zm.19,85-.55-.91.55-.92h15l.55.92-.55.91Zm2-65-.55-.92.55-.91h13l.55.91-.55.92Zm.73-15-.55-.91.55-.92h13l.55.92-.55.91Zm.74,10.07-.55-.91.55-.92h12.45l.55.92-.55.91Zm0,74.91-.55-.92.55-.91h14.83l.55.91-.55.92Zm.18-79.85-.55-.92.55-.91h12.45l.55.91-.55.92Z" transform="translate(-93.16 -133.99)"/><path class="cls-1" d="M907,370.34V322h22.71v22.53l-8.06,25.82Zm7.33,8.06L907,372.91h16.3l8.79-27.47V322.18l7.33,5.49v23.26l-9.16,27.47Zm5.31-10.81,7.32-23.8V324.74H909.75v42.85Zm4.21-39.74.55.92-.55.92h-5l-6,.73-.91-1.65.91-.92Zm-5,4.95h5l.55.91-.55.92h-5l-6,.73-.91-1.65.91-1.64Zm0,4.94h5l.55.92-.55.92h-5l-6,.73-.91-1.65.91-1.65Zm0,5.13h5l.55.92-.55.91h-5l-6,.74-.91-1.65.91-1.65Zm0,4.95h3.3l.55.91-.55.92h-3.3l-6,.91-.91-1.83.91-1.65Zm0,4.94h1.65l.55.92-.55.91H918.9l-6,.73-.91-1.64.91-1.65Zm0,4.95.55.91-.55.92-6,.73-.91-1.65.91-1.65Zm-1.83,4.94.55.92-.55.91h-4.21l-.91-.91.91-1.65Z" transform="translate(-93.16 -133.99)"/><path class="cls-1" d="M1028.42,359.54c-8.24-14.47-20.51-17.22-30.22-17.22-13.55,0-21.43,4.58-21.43,12.46,0,23.8,68.86,6.4,68.86,56,0,23.26-22.16,37-48.71,37-20.88,0-38.28-5.13-52-23.26l17-16.3c8.61,13.37,21.79,16.85,35.35,16.85,12.63,0,24.17-4.21,24.17-13.92,0-24.17-68.86-7.69-68.86-55.67,0-18.5,14.83-35.9,45.23-35.9,14.47,0,33.52,3.67,47.44,23.44Zm13.18-16.67c-11.9-16.66-29.85-20.51-43.77-20.51-28.38,0-42.48,16.12-42.48,33.15,0,46.33,68.86,28,68.86,55.49,0,11.54-12.46,16.85-26.92,16.85s-27.66-4-35.72-15.57l-12.82,12.64c14.11,16.84,31.14,20,48.17,20,24.91,0,46-12.64,46-34.07,0-48.53-68.86-28.93-68.86-56,0-9.53,8.42-15.2,24.17-15.2,10.62,0,23.08,3.29,30.77,15.74Zm-81.49,82.6H974l1.46.91-.55.92H960.11l-6.23.73-.91-1.65.91-1.65Zm3.11-5h3.12l1.46.92-.55.91h-4l-6.22.92-.92-1.83.92-1.65Zm1.65-65h6.23l.55.91-.55.92h-6.23l-6.23.73-.91-1.65.91-1.64Zm.37-5.13h6l.55.92-.55.91h-6l-6.23.73-.92-1.64.92-1.65Zm0,10.07h7.14l.55.92-.55.91h-7.14l-6.23.92-.92-1.83.92-1.65Zm-6.78,19.78c19,19.6,58,15.93,60.25,30C1004.06,406.42,968.72,401.11,958.46,380.23Zm8.06-34.79h7.14l.55.91-.55.92h-7.14l-6.23.73-.91-1.65.91-1.65Zm.18,20H976l.55.91-.55.92H966.7l-6.22.73-.92-1.65.92-1.65Zm0,65h63.37l.55.92-.55.91H966.7l-6.22.73-.92-1.64.92-1.65ZM961,418l-.54-1.47L961,415l1.47.55.55.91-.55.92Zm8.06-77.47h9.16l.55.92-1.1.91h-8.61l-6.22.73-.92-1.64.92-1.65Zm.55,30h15.75l.55.92-.55.92H969.63l-6.22.73-.92-1.65.92-1.46ZM1048,411a42.38,42.38,0,0,0-4.57-20c8.79,7.69,13.73,15,13.73,27.28,0,18.5-16.3,39.19-51.09,39.19-14.84,0-30.59-4.21-42.49-14.28,9,4.76,20.88,7,33.33,7C1023.47,450.19,1048,436.82,1048,411Zm-83.51-4.58,17.77,7.69a30.4,30.4,0,0,0,7.69,8.61C977.87,420.52,969.45,414.11,964.5,406.42Zm8.61-71.06h58.6l.55.92-.55.91h-58.6l-6.23.74-.91-1.65.91-1.65Zm.55,40.11h28.57l.55.91-.55.92H973.66l-6.23.73-.91-1.65.91-1.64Zm.73,59.89h48.35l.55.91-.55.92H974.39l-6.22.73-.92-1.65.92-1.65Zm5.13-104.94h44.87l.55.91-.55.92H979.52l-6.23.73-.91-1.65,1.1-1.64Zm1.28,50h38.46l.55.92-.55.92H980.8l-6.22.73-.92-1.65.92-1.65Zm17.4-35.71c8.43,0,15.38,2.38,21.79,8.61a42.17,42.17,0,0,0-10.25-1.28c-13.55,0-21.43,4.58-21.43,12.27-5.68-1.83-9.15-4.58-9.15-9.16C979.16,349.28,987,344.7,998.2,344.7ZM988,440.3H1011l.55.92-.55.91h-29.3l-.92-.91.92-1.65Zm24.9-114.83.55.92-.55.91h-24l-6.23.74-.91-1.65.91-.92ZM994,385.54h34.25l.55.92-.55.91H994l-6.23.74-.91-1.65.91-1.65Zm18.31,4.95h21.61l.55.91-.55.92H1012.3l-6.22.73-.92-1.65.92-1.65Zm6.78-48.17-1.47-.91.55-.92h19.05l.55.92-.55.91Zm6.23,83.15h9.89l.54.91-.54.92h-9.89l-6.23.73-.92-1.65,1.83-1.65Zm.73-30h11l.55.92-.55.91h-11l-5.31.74-1.83-1.65.91-1.65Zm4.58,25.09h7.32l.55.92-.55.91h-7.32l-6.23.92-.92-1.83.92-1.65Zm.55-20h7.69l.55.91-.55.92h-7.69l-6.23.73-.92-1.65.92-1.64ZM1026,347.27l-.73-.92.54-.91h8.43l.55.91-.55.92Zm7.14,58.23h6.59l.55.92-.55.92h-6.59l-6.23.73-.91-1.65.91-1.65Zm.18,10.08h5.86l.55.91-.55.92h-5.86l-6.22.73-.92-1.65.92-1.65Zm.55-5.13h6l.55.91-.55.92h-6l-6.59.73-.92-1.65.92-1.64ZM1029,351.3l-.55-.92.55-.92h1.46l.55.92-.55.92Zm4.94-23.81c9.71,5.49,19.78,13.18,25.46,19.78l-22.34,20-7.88-4.76,20.33-18.87C1046,338.84,1041.42,333.9,1033.91,327.49Z" transform="translate(-93.16 -133.99)"/><path class="cls-1" d="M418.32,633.43l-30.4-44.87H368.69v44.87H346V510h49.26c25.27,0,43.59,13.74,43.59,37.73,0,20-13.19,32-26.37,36.63l34.06,49.08ZM387,590.94l4.94,7.33H380.22v44.86H355.14L346,635.81h25.09V590.94Zm54.21,39.74-33-47.8c15.57-4.39,27.84-16.66,27.84-35.16,0-22.16-17-35-40.84-35H348.73V630.68h17.21V585.81h23.44l30.4,44.87ZM409,515.85l.55.92-.55.92h-51.1l-6,.73-.92-1.65.92-.92Zm-51.1,4.95h62.27l.55.91-.55.92H357.88l-6,.73-.92-1.65.92-1.64Zm0,4.94H426l.55.92-.55.92H357.88l-6,.73-.92-1.65.92-1.65Zm0,5.13h4.95l.55.92-.55.91h-4.95l-6,.74-.92-1.65.92-1.65Zm0,5h4.95l.55.91-.55.92h-4.95l-6,.73-.92-1.65.92-1.65Zm0,4.94h4.95l.55.92-.55.91h-4.95l-6,.73-.92-1.64.92-1.65Zm0,5.13h4.95l.55.91-.55.92h-4.95l-6,.73-.92-1.65.92-1.64Zm0,4.94h4.95l.55.92-.55.91h-4.95l-6,.92-.92-1.83.92-1.65Zm0,4.95h4.95l.55.91-.55.92h-4.95l-6,.73-.92-1.65.92-1.65Zm0,5.13h4.95l.55.91-.55.92h-4.95l-6,.73-.92-1.65.92-1.46Zm0,4.76h4.95l.55.91-.55.92h-4.95l-6,.73-.92-1.65.92-1.46Zm0,5.12h65l.54.92-.54.92h-65l-6,.73-.92-1.65.92-1.65Zm0,5.13h57.51l.55.92-.55.91H357.88l-6,.74-.92-1.65.92-1.65Zm0,5h48l.55.91-.55.92h-48l-6,.73-.92-1.65.92-1.65Zm0,4.94h4.95l.55.92-.55.91h-4.95l-6,.74-.92-1.65.92-1.65Zm0,5.13h4.95l.55.92-.55.91h-4.95l-6,.73-.92-1.64.92-1.65Zm0,4.94h4.95l.55.92-.55.92h-4.95l-6,.73-.92-1.65.92-1.65Zm0,5h4.95l.55.92-.55.91h-4.95l-6,.73-.92-1.64.92-1.65Zm0,5.13h4.95l.55.91-.55.92h-4.95l-6,.73-.92-1.65.92-1.65Zm0,4.94h4.95l.55.92-.55.91h-4.95l-6,.92-.92-1.83.92-1.65Zm0,5h4.95l.55.91-.55.92h-4.95l-6,.73-.92-1.65.92-1.65Zm0,4.94h4.95l.55.92-.55.91h-4.95l-6,.74-.92-1.65.92-1.65Zm0,5h4.95l.55.91-.55.92h-11l-.92-.92.92-1.65Zm35.9-58.24H365.94V530.69h28.94c14.46,0,22.52,5.68,22.52,17.21C417.4,561.09,409.16,567.5,393.78,567.5Zm1.1-33.88H368.69v31.13h25.09c13.73,0,20.87-5.49,20.87-16.85C414.65,538.2,407.69,533.62,394.88,533.62ZM371.07,536h23.62c10.26,0,15,2.75,16.85,7.69a45.82,45.82,0,0,0-5.13-.37H380.22v19h-9.15Zm22.34,51.64-.55-.91.55-.92h14.28l.55.92-.55.91Zm3.3,5.13-.55-.91.55-.92h14.46l.55.92-.55.91Zm3.48,5-.55-.92.55-.92h14.46l.55.92-.55.92Zm3.29,4.94-.55-.91.55-.92H418l.55.92-.55.91Zm3.67,5.13-.55-.92.55-.91h14.28l.55.91-.55.92Zm1.46-40.29-.55-.73,1.47-.92h17.94l.55.92-.55.73Zm2.2-34.8-1.47-.91.55-.92h19.6l.55.92-.55.91Zm-.55,80-.55-.91.55-.92h14.65l.55.92-.55.91Zm3.48,4.95-.55-.92.55-.91h14.83l.55.91-.55.92Zm1.65-54.94-.55-.92.55-.91h14.83l.55.91-.55.92Zm13.73,80.39L420,635.81h30.94l-34.79-50.18c13.55-5.68,25.09-15.57,25.09-37.73,0-7.51-1.83-16.3-6-22.16a39.58,39.58,0,0,1,15.2,31.69c0,15.93-10.81,27.65-21.8,33.33l36.63,52.37ZM416.67,537.65l-.55-.92.55-.91H431.5l.55.91-.55.92Zm.18,85-.55-.91.55-.92h15l.55.92-.55.91Zm2-65-.55-.92.55-.91h13l.55.91-.55.92Zm.73-15-.55-.91.55-.92h13l.55.92-.55.91Zm.73,10.07-.55-.91.55-.92h12.45l.55.92-.55.91Zm0,74.91-.55-.92.55-.91h14.84l.54.91-.54.92Zm.18-79.85-.54-.92.54-.91H433l.55.91-.55.92Z" transform="translate(-93.16 -133.99)"/><path class="cls-1" d="M472,633.43V510H554.2v23.63H494.68v21.24h54v23.81h-54V610h63.18v23.44Zm9.16,9.7L472,635.81h88.27V610l9.16,7.32v25.82Zm74-12.45V612.73H491.93V575.92h54V557.61h-54V530.87h59.52V512.74H474.72V630.68Zm-6.78-114.83.55.92-.55.92H483.88l-6.05.73-.91-1.65.91-.92Zm-64.46,4.95h64.46l.55.91-.55.92H483.88l-6.05.73-.91-1.65.91-1.64Zm0,4.94h64.46l.55.92-.55.92H483.88l-6.05.73-.91-1.65.91-1.65Zm0,5.13h4.94l.55.92-.55.91h-4.94l-6.05.74-.91-1.65.91-1.65Zm0,5h4.94l.55.91-.55.92h-4.94l-6.05.73-.91-1.65.91-1.65Zm0,4.94h4.94l.55.92-.55.91h-4.94l-6.05.73-.91-1.64.91-1.65Zm0,5.13h4.94l.55.91-.55.92h-4.94l-6.05.73-.91-1.65.91-1.64Zm0,4.94h4.94l.55.92-.55.91h-4.94l-6.05.92-.91-1.83.91-1.65Zm0,4.95h4.94l.55.91-.55.92h-4.94l-6.05.73-.91-1.65.91-1.65Zm0,5.13h59l.54.91-.54.92h-59l-6.05.73-.91-1.65.91-1.46Zm0,4.94h59l.54.92-.54.91h-59l-6.05.73-.91-1.64.91-1.65Zm0,4.94h59l.54.92-.54.92h-59l-6.05.73-.91-1.65.91-1.65Zm0,5.13h4.94l.55.92-.55.91h-4.94l-6.05.74-.91-1.65.91-1.65Zm0,5h4.94l.55.91-.55.92h-4.94l-6.05.73-.91-1.65.91-1.65Zm0,4.94h4.94l.55.92-.55.91h-4.94l-6.05.74-.91-1.65.91-1.65Zm0,5.13h4.94l.55.92-.55.91h-4.94l-6.05.73-.91-1.64.91-1.65Zm0,4.94h4.94l.55.92-.55.92h-4.94l-6.05.73-.91-1.65.91-1.65Zm0,5h4.94l.55.92-.55.91h-4.94l-6.05.73-.91-1.64.91-1.65Zm0,5.13h4.94l.55.91-.55.92h-4.94l-6.05.73-.91-1.65.91-1.65Zm0,4.94h4.94l.55.92-.55.91h-4.94l-6.05.92-.91-1.83.91-1.65Zm0,5h68.31l.54.91-.54.92H483.88l-6.05.73-.91-1.65.91-1.65Zm0,4.94h68.31l.54.92-.54.91H483.88l-6.05.74-.91-1.65.91-1.65Zm0,5h68.31l.54.91-.54.92H477.83l-.91-.92.91-1.65ZM556.58,536V510l9.16,7.33v26H506.22v9.16h-9.16V536Zm-5.49,45V554.86l9.15,7.33v26.19h-54v19.23h-9.16V581.05Z" transform="translate(-93.16 -133.99)"/><path class="cls-1" d="M662.43,547.54c-8.24-14.47-20.51-17.22-30.22-17.22-13.55,0-21.42,4.58-21.42,12.46,0,23.8,68.86,6.4,68.86,56,0,23.25-22.16,37-48.72,37-20.88,0-38.27-5.13-52-23.26l17-16.3c8.61,13.37,21.8,16.85,35.35,16.85,12.63,0,24.17-4.21,24.17-13.92,0-24.17-68.86-7.69-68.86-55.67,0-18.5,14.84-35.9,45.24-35.9,14.46,0,33.51,3.67,47.43,23.44Zm13.19-16.67c-11.91-16.66-29.85-20.51-43.77-20.51-28.39,0-42.49,16.12-42.49,33.15,0,46.33,68.86,28,68.86,55.49,0,11.54-12.45,16.85-26.92,16.85s-27.66-4-35.71-15.57l-12.82,12.64c14.1,16.84,31.13,20,48.16,20,24.91,0,46-12.64,46-34.06,0-48.54-68.86-28.94-68.86-56,0-9.53,8.42-15.2,24.17-15.2,10.62,0,23.08,3.29,30.77,15.74Zm-81.5,82.6H608l1.46.91-.54.92H594.12l-6.23.73-.91-1.65.91-1.65Zm3.11-5h3.12l1.46.92-.55.91h-4l-6.22.92-.92-1.83.92-1.65Zm1.65-65h6.23l.55.91-.55.92h-6.23l-6.22.73-.92-1.65.92-1.64Zm.37-5.13h6l.55.92-.55.91h-6l-6.23.73-.91-1.64.91-1.65Zm0,10.07h7.14l.55.92-.55.91h-7.14l-6.23.92-.91-1.83.91-1.65Zm-6.78,19.78c19,19.6,58.06,15.93,60.25,30C638.07,594.42,602.73,589.11,592.47,568.23Zm8.06-34.79h7.14l.55.91-.55.92h-7.14l-6.23.73-.91-1.65.91-1.65Zm.18,20h9.34l.55.91-.55.92h-9.34l-6.22.73-.92-1.65.92-1.65Zm0,65h63.37l.55.92-.55.91H600.71l-6.22.73-.92-1.64.92-1.65ZM595,606l-.55-1.47L595,603l1.46.55.55.91-.55.92Zm8.05-77.47h9.16l.55.92-1.1.91h-8.61l-6.22.73-.92-1.64.92-1.65Zm.55,30h15.75l.55.92-.55.92H603.64l-6.22.73-.92-1.65.92-1.46ZM682,599a42.38,42.38,0,0,0-4.58-20c8.79,7.69,13.73,15,13.73,27.28,0,18.5-16.3,39.19-51.09,39.19-14.84,0-30.59-4.21-42.49-14.28,9,4.76,20.88,7,33.33,7C657.49,638.19,682,624.82,682,599Zm-83.51-4.58,17.76,7.69a30.42,30.42,0,0,0,7.69,8.61C611.88,608.52,603.46,602.11,598.52,594.42Zm8.6-71.06h58.61l.55.92-.55.91H607.12l-6.22.74-.92-1.65.92-1.65Zm.55,40.11h28.57l.55.91-.55.92H607.67l-6.22.73-.92-1.65.92-1.64Zm.74,59.89h48.34l.55.91-.55.92H608.41l-6.23.73-.92-1.65.92-1.65Zm5.12-104.94H658.4l.55.91-.55.92H613.53l-6.22.73-.92-1.65,1.1-1.64Zm1.29,50h38.45l.55.92-.55.92H614.82l-6.23.73-.92-1.65.92-1.65Zm17.39-35.71c8.43,0,15.39,2.38,21.8,8.61A42.3,42.3,0,0,0,643.75,540c-13.55,0-21.43,4.58-21.43,12.27-5.67-1.83-9.15-4.58-9.15-9.16C613.17,537.28,621,532.7,632.21,532.7ZM622,628.3H645l.55.92-.55.91h-29.3l-.91-.91.91-1.65Zm24.9-114.83.55.92-.55.91h-24l-6.22.74-.92-1.65.92-.92ZM628,573.54h34.25l.55.92-.55.91H628l-6.23.74-.91-1.65.91-1.65Zm18.31,5h21.61l.55.91-.55.92H646.31l-6.22.73-.92-1.65.92-1.65Zm6.78-48.17-1.46-.91.54-.92h19.05l.55.92-.55.91Zm6.23,83.15h9.89l.55.91-.55.92h-9.89l-6.23.73-.92-1.65,1.84-1.65Zm.73-30h11l.55.92-.55.91h-11l-5.31.74-1.83-1.65.91-1.65Zm4.58,25.09H672l.55.92-.55.91h-7.32l-6.23.92-.91-1.83.91-1.65Zm.55-20h7.69l.55.92-.55.91h-7.69l-6.23.73-.91-1.64.91-1.65Zm-5.13-53.29-.73-.92.55-.91h8.42l.55.91-.55.92Zm7.14,58.23h6.6l.54.92-.54.92h-6.6l-6.22.73-.92-1.65.92-1.65Zm.19,10.08h5.86l.55.91-.55.92h-5.86l-6.23.73-.92-1.65.92-1.65Zm.54-5.13H674l.55.91-.55.92h-6.05l-6.59.73-.91-1.65.91-1.64ZM663,539.3l-.55-.92.55-.92h1.47l.54.92-.54.92Zm4.94-23.81c9.71,5.49,19.78,13.18,25.46,19.78l-22.34,20-7.88-4.76,20.33-18.87C680,526.84,675.43,521.9,667.92,515.49Z" transform="translate(-93.16 -133.99)"/><path class="cls-1" d="M764.25,533.62v99.81H741.54V533.62H698.87V510h108v23.63Zm-25.09,9.7H708L698.87,536h40.29Zm65-12.45V512.74H701.62v18.13h42.67v99.81H761.5V530.87Zm-2.93-15,.54.92-.54.92H711l-6,.73-.92-1.65.92-.92ZM711,520.8h90.29l.54.91-.54.92H711l-6,.73-.92-1.65.92-1.64Zm0,4.94h90.29l.54.92-.54.92H704.92l-.92-.92.92-1.65Zm64.83,17.58v99.81H750.7l-9.16-7.32h25.09V536H809.3V510l9.16,7.33v26Zm-22.16-12.45h5l.54.92-.54.91h-5l-6,.74-.92-1.65.92-1.65Zm0,5h5l.54.91-.54.92h-5l-6,.73-.92-1.65.92-1.65Zm0,4.94h5l.54.92-.54.91h-5l-6,.73-.92-1.64.92-1.65Zm0,5.13h5l.54.91-.54.92h-5l-6,.73-.92-1.65.92-1.64Zm0,4.94h5l.54.92-.54.91h-5l-6,.92-.92-1.83.92-1.65Zm0,4.95h5l.54.91-.54.92h-5l-6,.73-.92-1.65.92-1.65Zm0,5.13h5l.54.91-.54.92h-5l-6,.73-.92-1.65.92-1.46Zm0,4.94h5l.54.92-.54.91h-5l-6,.73-.92-1.64.92-1.65Zm0,4.94h5l.54.92-.54.92h-5l-6,.73-.92-1.65.92-1.65Zm0,5.13h5l.54.92-.54.91h-5l-6,.74-.92-1.65.92-1.65Zm0,5h5l.54.91-.54.92h-5l-6,.73-.92-1.65.92-1.65Zm0,4.94h5l.54.92-.54.91h-5l-6,.74-.92-1.65.92-1.65Zm0,5.13h5l.54.92-.54.91h-5l-6,.73-.92-1.64.92-1.65Zm0,4.94h5l.54.92-.54.92h-5l-6,.73-.92-1.65.92-1.65Zm0,5h5l.54.92-.54.91h-5l-6,.73-.92-1.64.92-1.65Zm0,5.13h5l.54.91-.54.92h-5l-6,.73-.92-1.65.92-1.65Zm0,4.94h5l.54.92-.54.91h-5l-6,.92-.92-1.83.92-1.65Zm0,5h5l.54.91-.54.92h-5l-6,.73-.92-1.65.92-1.65Zm0,4.94h5l.54.92-.54.91h-5l-6,.74-.92-1.65.92-1.65Zm0,5h5l.54.91-.54.92h-11l-.92-.92.92-1.65Z" transform="translate(-93.16 -133.99)"/></svg>