<?xml version="1.0" encoding="utf-8"?>
<!-- Generator: Adobe Illustrator 26.2.1, SVG Export Plug-In . SVG Version: 6.00 Build 0)  -->
<svg version="1.1" id="Layer_1" xmlns="http://www.w3.org/2000/svg" xmlns:xlink="http://www.w3.org/1999/xlink" x="0px" y="0px"
	 viewBox="0 0 1000 1000" style="enable-background:new 0 0 1000 1000;" xml:space="preserve">
<style type="text/css">
	.st0{fill:#FFFFFF;}
</style>
<g>
	<polygon class="st0" points="479.17,437.21 528.03,437.21 530.43,435.85 528.03,434.49 479.17,434.49 451.92,433.41 447.91,435.85 
		451.92,438.29 	"/>
	<polygon class="st0" points="479.86,444.1 452.71,443.01 448.71,445.45 452.71,447.89 479.86,446.81 528.11,446.81 530.5,445.45 
		528.11,444.1 	"/>
	<polygon class="st0" points="479.28,453.7 451.93,452.61 447.91,455.05 451.93,457.5 479.28,456.41 528.1,456.41 530.51,455.05 
		528.1,453.7 	"/>
	<polygon class="st0" points="479.52,463.3 452.31,462.21 448.31,464.65 452.31,467.1 479.52,466.01 527.27,466.01 529.67,464.65 
		527.27,463.3 	"/>
	<polygon class="st0" points="480.03,472.9 452.98,471.81 449,474.26 452.98,476.7 480.03,475.61 526.39,475.61 528.78,474.26 
		526.39,472.9 	"/>
	<polygon class="st0" points="480.68,482.5 454.73,481.42 450.84,483.86 454.73,486.3 480.68,485.21 525.21,485.21 527.55,483.86 
		525.21,482.5 	"/>
	<polygon class="st0" points="482.55,491.86 457.25,490.57 453.53,493.46 457.25,496.35 482.55,495.06 523.89,495.06 526.12,493.46 
		523.89,491.86 	"/>
	<polygon class="st0" points="483.13,501.7 458.37,500.62 454.73,503.06 458.37,505.5 483.13,504.42 521.92,504.42 524.1,503.06 
		521.92,501.7 	"/>
	<polygon class="st0" points="483.84,511.31 459.86,510.22 456.34,512.66 459.86,515.1 483.84,514.02 520.34,514.02 522.46,512.66 
		520.34,511.31 	"/>
	<polygon class="st0" points="483.84,520.91 459.86,519.82 456.34,522.26 459.86,524.7 483.84,523.62 518.89,523.62 521,522.26 
		518.89,520.91 	"/>
	<polygon class="st0" points="485.1,530.4 461.57,529.23 458.11,531.86 461.57,534.5 485.1,533.33 517.84,533.33 519.91,531.86 
		517.84,530.4 	"/>
	<polygon class="st0" points="484.63,540.11 460.81,539.02 457.31,541.47 460.81,543.91 484.63,542.82 517.31,542.82 519.41,541.47 
		517.31,540.11 	"/>
	<polygon class="st0" points="485.7,549.71 462.55,548.63 459.15,551.07 462.55,553.51 485.7,552.42 516.68,552.42 518.72,551.07 
		516.68,549.71 	"/>
	<polygon class="st0" points="485.73,559.54 462.61,558.65 459.21,560.67 462.61,562.69 485.73,561.79 516.68,561.79 518.72,560.67 
		516.68,559.54 	"/>
	<polygon class="st0" points="485.93,568.91 462.93,567.83 459.55,570.27 462.93,572.71 485.93,571.63 516.69,571.63 518.72,570.27 
		516.69,568.91 	"/>
	<polygon class="st0" points="485.93,578.51 462.93,577.43 459.55,579.87 462.93,582.31 485.93,581.23 516.26,581.23 518.29,579.87 
		516.26,578.51 	"/>
	<polygon class="st0" points="486.16,588.12 463.31,587.03 459.95,589.47 463.31,591.91 486.16,590.83 516.27,590.83 518.29,589.47 
		516.27,588.12 	"/>
	<polygon class="st0" points="486.29,597.72 464.03,596.63 460.75,599.07 464.03,601.52 486.29,600.43 516.33,600.43 518.29,599.07 
		516.33,597.72 	"/>
	<polygon class="st0" points="458.64,408.75 460.11,406.3 458.64,403.86 454.73,403.86 453.27,406.3 454.73,408.75 	"/>
	<polygon class="st0" points="474.59,415.17 476.05,412.73 474.59,410.28 470.68,410.28 469.21,412.73 470.68,415.17 	"/>
	<polygon class="st0" points="527.18,406.02 528.25,404.23 527.18,402.44 524.32,402.44 523.25,404.23 524.32,406.02 	"/>
	<polygon class="st0" points="543.91,416.44 545.38,414 543.91,411.55 540.01,411.55 538.54,414 540.01,416.44 	"/>
	<polygon class="st0" points="527.84,420.25 529.31,417.81 527.84,415.37 523.93,415.37 522.47,417.81 523.93,420.25 	"/>
	<path class="st0" d="M500,359.52c-77.59,0-140.48,62.9-140.48,140.48c0,77.59,62.9,140.48,140.48,140.48
		c77.59,0,140.48-62.9,140.48-140.48C640.48,422.41,577.59,359.52,500,359.52z M554.98,456.87h-7.26l-10.19-1.3l-1.5,2.93l1.5,2.93
		l10.19-1.3h7.19c-0.04,1.55-0.1,3.05-0.17,4.53h-7.94l-9.47-1.3l-1.39,2.93l1.39,2.93l9.47-1.3h7.76c-0.1,1.57-0.22,3.09-0.36,4.53
		H546l-9.07-1.3l-1.33,2.93l1.33,2.93l9.07-1.3h7.81c-0.09,0.65-0.18,1.3-0.28,1.9c-0.14,0.87-0.29,1.75-0.43,2.62h-8.07l-9.07-1.3
		l-1.33,2.93l1.33,2.93l9.07-1.3h7.53c-0.25,1.51-0.5,3.02-0.75,4.53h-8.04l-9.12-1.3l-1.34,2.93l1.34,2.93l9.12-1.3h7.5
		c-0.25,1.51-0.5,3.02-0.75,4.53h-9.2l-8.46-1.3l-1.24,2.93l1.24,2.93l8.46-1.3h8.67c-0.25,1.51-0.48,3.02-0.72,4.53h-9.6l-7.94-1.3
		l-1.17,2.93l1.17,2.93l7.94-1.3h9.08c-0.24,1.51-0.46,3.02-0.69,4.53h-11.8l-6.79-1.3l-1,2.93l1,2.93l6.79-1.3h11.31
		c-0.22,1.51-0.43,3.02-0.63,4.53h-11.46l-6.88-1.3l-1.01,2.93l1.01,2.93l6.88-1.3h11.02c-0.2,1.51-0.39,3.02-0.57,4.53h-12.48
		l-6.17-1.3l-0.91,2.93l0.91,2.93l6.17-1.3h12.1c-0.17,1.51-0.34,3.02-0.49,4.53h-11.87l-6.16-1.3l-0.91,2.93l0.91,2.93l6.16-1.3
		h11.57c-0.14,1.51-0.26,3.02-0.38,4.53h-12.25l-5.69-1.3l-0.84,2.93l0.84,2.93l5.69-1.3h12.02c-0.1,1.51-0.18,3.02-0.26,4.53
		h-12.43l-5.66-1.3l-0.83,2.93l0.83,2.93l5.66-1.3h12.26c-0.07,1.51-0.11,3.02-0.16,4.53h-13.12l-5.16-1.3l-0.76,2.93l0.76,2.93
		l5.16-1.3h13.01c-0.04,1.51-0.06,3.02-0.1,4.53H530.4l-5.28-1.3l-0.78,2.93l0.78,2.93l5.28-1.3h12.87c0,0.21-0.01,0.43-0.01,0.64
		c-0.02,1.29-0.03,2.59-0.03,3.88h-12.64l-5.18-1.3l-0.76,2.93l0.76,2.93l5.18-1.3h12.65c0.01,1.51,0.02,3.02,0.03,4.53h-12.76
		l-5.5-1.3l-0.81,2.93l0.81,2.93l5.5-1.3h12.77c0,1.51-0.01,3.02-0.04,4.53h-12.87l-5.35-1.3l-0.79,2.93l0.79,2.93l5.35-1.3h12.78
		c-0.06,1.51-0.14,3.02-0.25,4.53h-13.54l-5.35-1.3l-0.79,2.93l0.79,2.93l5.35-1.3h13.24c-0.08,0.71-0.14,1.42-0.23,2.12
		c-0.42,3.11-0.97,5.2-4.07,5.56c-1.6,0.19-3.3,0.05-4.9,0.06c-4.67,0.03-9.34,0.01-14.01-0.02c-6.46-0.03-12.93-0.09-19.39-0.15
		c-6.46,0.07-12.93,0.12-19.39,0.15c-4.67,0.02-9.34,0.04-14.01,0.02c-1.61-0.01-3.31,0.13-4.9-0.06c-3.11-0.36-3.66-2.45-4.07-5.56
		c-1.44-10.71-0.72-21.78-0.88-32.58c-0.17-11.29-0.56-22.58-1.67-33.82c-1.93-19.53-5.43-38.86-8.6-58.22
		c-4.02-24.59,1.37-85.44,1.37-85.44l51.98,0v0h52.35c0,0,1.3,14.71,2.15,32.59h-60.56l-39.37-1.22l-6.08,2.75l6.08,2.75l39.37-1.22
		h60.69c0.08,1.9,0.16,3.83,0.23,5.77h-6.99l-10.19-1.3l-1.5,2.93l1.5,2.93l10.19-1.3h7.09c0.05,1.51,0.08,3.02,0.12,4.53h-6.78
		l-10.19-1.3l-1.5,2.93l1.5,2.93l10.19-1.3h6.84c0.02,1.52,0.04,3.03,0.05,4.53h-7.3l-10.19-1.3l-1.5,2.93l1.5,2.93l10.19-1.3h7.3
		C555.01,453.88,555,455.39,554.98,456.87z"/>
	<path class="st0" d="M836.36,489.07C830.7,311.89,688.11,169.3,510.93,163.64L500,85l-10.93,78.64
		C311.89,169.3,169.3,311.89,163.64,489.07L85,500l78.64,10.93c5.65,177.18,148.25,319.78,325.43,325.43L500,915l10.93-78.64
		c177.18-5.65,319.78-148.25,325.43-325.43L915,500L836.36,489.07z M806.41,484.91l-6.6-0.92
		C791.75,331.15,668.85,208.26,516,200.19l-0.92-6.6C672.28,201.24,798.76,327.72,806.41,484.91z M762.37,567.56l16.96,2.47l1.25,5
		l-3.59,3.7l-15.92-6.34l-20.79-5.57l-0.8-2.81l2.1-2.03L762.37,567.56z M745.77,532.22l1.81-2.29l21.34,2.81l17.13,0.24l1.89,4.79
		l-3.07,4.14l-16.61-4.21l-21.34-2.81L745.77,532.22z M751.33,601.23l16.49,4.66l0.59,5.12l-4.04,3.2l-14.96-8.36l-19.89-8.24
		l-0.43-2.89l2.34-1.74L751.33,601.23z M674.76,678.04l0.71-2.83l2.83-0.71l15.22,15.22l13.45,10.62l-1.41,4.96l-4.96,1.41
		l-10.62-13.45L674.76,678.04z M679.07,725.64l-2.05,4.73l-5.1,0.76l-8.77-14.72l-13.1-17.08l1.07-2.71l2.9-0.33l13.1,17.08
		L679.07,725.64z M696.48,653.7l0.33-2.9l2.71-1.07l17.08,13.1l14.72,8.77l-0.76,5.1l-4.73,2.05l-12.28-11.95L696.48,653.7z
		 M714.84,626.74l-0.05-2.92l2.55-1.42l18.64,10.76l15.74,6.78l-0.08,5.15l-4.42,2.65l-13.74-10.24L714.84,626.74z M524.73,737
		l6.61-47.57c37.41-6.14,71.87-23.13,99.73-49.18l37.32,28.07l-28.23-37.15c26.1-27.88,43.12-62.37,49.27-99.82l47.57-6.61
		C725.46,636.58,636.58,725.46,524.73,737z M648.1,747.08l-2.65,4.42l-5.15,0.08l-6.77-15.74l-10.76-18.64l1.42-2.55l2.92,0.05
		l10.76,18.64L648.1,747.08z M614.61,764.3l-3.2,4.04l-5.12-0.59l-4.66-16.49l-8.24-19.89l1.74-2.34l2.89,0.43l8.24,19.89
		L614.61,764.3z M579.15,777l-3.7,3.59l-5-1.25l-2.47-16.96l-5.57-20.79l2.03-2.1l2.81,0.8l5.57,20.79L579.15,777z M542.33,784.96
		l-4.14,3.07l-4.79-1.9L533.17,769l-2.81-21.34l2.29-1.81l2.68,1.16l2.81,21.34L542.33,784.96z M604.98,605.92
		c2.53-2.5,4.98-5.09,7.31-7.77l44.69,58.81l-2.03-1.53l0.05-0.59l-0.76,0.06l-2.91-2.19l0.11-1.41l-1.8,0.14l-1.93-1.45l0.17-2.23
		l-2.38,0.18l-0.21,0.23l-1.59-1.2l0.44-0.39l0.18-2.36l-2.38,0.18l-0.67,0.75l-1.66-1.25l0.97-0.86l0.18-2.37l-2.38,0.18
		l-1.13,1.26l-1.72-1.3l1.49-1.32l0.18-2.37l-2.38,0.18l-1.59,1.78l-1.13-0.85l1.93-1.71l0.18-2.37l-2.38,0.18l-1.98,2.21
		l-1.84-1.38l2.46-2.18l0.18-2.36l-2.38,0.18l-2.2,2.46c-0.08,0.09-0.16,0.18-0.25,0.27l-1.89-1.42c0.17-0.15,0.33-0.31,0.5-0.46
		l2.48-2.2l0.18-2.37l-2.38,0.18l-2.21,2.47c-0.23,0.26-0.47,0.51-0.71,0.77l-1.94-1.46c0.34-0.31,0.68-0.63,1.02-0.93l2.48-2.2
		l0.18-2.36l-2.38,0.18l-2.21,2.47c-0.39,0.43-0.78,0.85-1.18,1.28l-1.99-1.5c0.51-0.47,1.02-0.94,1.54-1.4l2.48-2.2l0.18-2.37
		l-2.38,0.18l-2.2,2.46c-0.54,0.61-1.1,1.2-1.65,1.8l-2.04-1.54c0.68-0.63,1.36-1.26,2.06-1.88l2.48-2.2l0.18-2.37l-2.38,0.18
		l-2.2,2.46c-0.7,0.78-1.41,1.54-2.13,2.31l-2.09-1.57c0.86-0.79,1.71-1.58,2.58-2.35l2.48-2.2l0.18-2.37l-2.38,0.18l-2.21,2.47
		c-0.85,0.95-1.72,1.88-2.59,2.81l-2.14-1.61c1.03-0.95,2.05-1.9,3.09-2.82l2.48-2.2l0.18-2.36l-2.38,0.18l-2.21,2.47
		c-1,1.12-2.03,2.22-3.06,3.32l-2.19-1.65c1.2-1.11,2.4-2.21,3.62-3.29l2.48-2.2l0.18-2.37L604.98,605.92z M645.13,535.16
		c1.83-7.55,3.05-15.24,3.68-22.99c0.38,7.44,0.61,14.91,0.68,22.39L645.13,535.16z M642.48,536.25l-0.42,1.67l0.05-0.01
		c-5.53,20.67-15.75,40.24-29.68,56.75l-0.03-0.04l-0.9,1.05c-4.92,5.75-10.34,11.15-16.12,16.04l-1.05,0.89l0.06,0.05
		c-16.45,13.81-35.93,23.96-56.48,29.45l0.01-0.05l-1.67,0.42c-23.64,6.02-48.87,6.02-72.5,0l-1.67-0.42l0.01,0.05
		c-20.54-5.49-39.99-15.63-56.44-29.41l0.01-0.01l-1.05-0.89c-5.78-4.89-11.2-10.29-16.12-16.04l-0.7-0.82
		c-14.04-16.57-24.34-36.24-29.9-57.02l0.05,0.01l-0.42-1.67c-3.01-11.82-4.53-24.01-4.53-36.25s1.53-24.44,4.53-36.25l0.42-1.67
		l-0.05,0.01c5.56-20.78,15.86-40.46,29.9-57.02l0.7-0.82c4.92-5.75,10.34-11.15,16.12-16.04l1.05-0.89l-0.01-0.01
		c16.44-13.79,35.9-23.92,56.44-29.41l-0.01,0.05l1.67-0.42c23.63-6.02,48.88-6.02,72.5,0l1.67,0.42l-0.01-0.05
		c20.53,5.49,39.98,15.62,56.42,29.4l-0.03,0.03l1.05,0.89c5.78,4.89,11.2,10.29,16.12,16.04l0.9,1.05l0.02-0.02
		c13.95,16.52,24.19,36.12,29.73,56.81l-0.05-0.01l0.42,1.67c3.01,11.82,4.53,24.02,4.53,36.25
		C647.01,512.23,645.48,524.43,642.48,536.25z M263,524.73l47.57,6.61c6.15,37.46,23.18,71.97,49.3,99.85l-28.26,37.2l37.37-28.11
		c27.86,26.03,62.3,43,99.69,49.14l6.61,47.57C363.42,725.46,274.54,636.58,263,524.73z M470.22,747.74l-2.81,21.34l-0.24,17.13
		l-4.79,1.9l-4.14-3.07l4.21-16.61l2.81-21.34l2.68-1.16L470.22,747.74z M438.16,741.73l-5.57,20.79l-2.47,16.96l-5,1.25l-3.7-3.59
		l6.34-15.92l5.57-20.79l2.81-0.8L438.16,741.73z M407.16,731.6l-8.24,19.89l-4.66,16.49l-5.12,0.59l-3.2-4.04l8.36-14.96
		l8.24-19.89l2.89-0.43L407.16,731.6z M377.74,717.5l-10.76,18.64l-6.78,15.74l-5.15-0.08l-2.65-4.42l10.24-13.74l10.76-18.64
		l2.92-0.05L377.74,717.5z M220.82,570.6l16.96-2.47l20.79-5.57l2.1,2.03l-0.8,2.81l-20.79,5.57l-15.92,6.34l-3.58-3.7L220.82,570.6
		z M215.19,542.49l-3.07-4.14l1.9-4.79l17.13-0.24l21.34-2.81l1.81,2.29l-1.16,2.68l-21.34,2.81L215.19,542.49z M232.4,606.44
		l16.49-4.66l19.89-8.24l2.34,1.74l-0.43,2.89l-19.89,8.24l-14.96,8.36l-4.04-3.2L232.4,606.44z M264.31,633.68l18.64-10.76
		l2.55,1.42l-0.05,2.92l-18.64,10.76l-13.74,10.24l-4.42-2.65l-0.08-5.15L264.31,633.68z M283.75,663.3l17.08-13.1l2.71,1.07
		l0.33,2.9l-17.08,13.1l-12.28,11.95l-4.73-2.05l-0.76-5.1L283.75,663.3z M306.9,690.13l15.22-15.22l2.83,0.71l0.71,2.83
		l-15.22,15.22l-10.62,13.45l-4.96-1.41l-1.41-4.96L306.9,690.13z M333.34,713.71l13.11-17.08l2.9,0.33l1.07,2.71l-13.1,17.08
		l-8.77,14.72l-5.1-0.76l-2.05-4.73L333.34,713.71z M394.41,608.3l2.48,2.2c1.22,1.08,2.42,2.19,3.62,3.29l-2.19,1.65
		c-1.03-1.1-2.06-2.2-3.06-3.32l-2.21-2.47l-2.38-0.18l0.18,2.36l2.48,2.2c1.04,0.92,2.07,1.88,3.09,2.82l-2.14,1.61
		c-0.87-0.93-1.74-1.86-2.59-2.81l-2.21-2.47l-2.38-0.18l0.18,2.37l2.48,2.2c0.87,0.77,1.72,1.56,2.58,2.35l-2.09,1.57
		c-0.71-0.77-1.43-1.53-2.13-2.31l-2.2-2.46l-2.38-0.18l0.18,2.37l2.48,2.2c0.69,0.61,1.37,1.25,2.06,1.88l-2.04,1.54
		c-0.55-0.6-1.11-1.19-1.65-1.8l-2.2-2.46L380,620.1l0.18,2.36l2.48,2.2c0.52,0.46,1.03,0.93,1.54,1.4l-1.99,1.5
		c-0.4-0.42-0.79-0.85-1.18-1.28l-2.21-2.47l-2.38-0.18l0.18,2.36l2.48,2.2c0.34,0.3,0.68,0.62,1.02,0.93l-1.94,1.46
		c-0.24-0.26-0.48-0.51-0.71-0.77l-2.21-2.47l-2.38-0.18l0.18,2.37l2.48,2.2c0.17,0.15,0.33,0.3,0.5,0.46l-1.89,1.42
		c-0.08-0.09-0.17-0.18-0.25-0.27l-2.2-2.46l-2.38-0.18l0.18,2.37l2.46,2.18l-1.84,1.38l-1.98-2.21l-2.38-0.18l0.18,2.37l1.93,1.71
		l-1.13,0.85l-1.59-1.78l-2.38-0.18l0.18,2.37l1.49,1.32l-1.72,1.3l-1.13-1.26l-2.38-0.18l0.18,2.36l0.96,0.86l-1.66,1.25
		l-0.67-0.75l-2.38-0.18l0.18,2.36l0.44,0.39l-1.59,1.2l-0.21-0.23l-2.38-0.18l0.17,2.23l-1.93,1.45l-1.8-0.14l0.11,1.41l-2.91,2.19
		l-0.76-0.06l0.05,0.59l-2.03,1.53l44.69-58.81c2.33,2.68,4.78,5.27,7.31,7.77l-0.79-0.06L394.41,608.3z M464.84,645.13
		c7.88,1.91,15.92,3.14,24.01,3.74c-7.77,0.42-15.57,0.65-23.39,0.73L464.84,645.13z M237.63,432.75l-16.96-2.47l-1.25-5l3.59-3.7
		l15.92,6.34l20.79,5.57l0.8,2.81l-2.1,2.03L237.63,432.75z M254.23,468.09l-1.81,2.29l-21.34-2.81l-17.13-0.24l-1.89-4.79
		l3.07-4.14l16.61,4.21l21.34,2.81L254.23,468.09z M248.67,399.08l-16.49-4.66l-0.59-5.12l4.04-3.2l14.96,8.36l19.89,8.24l0.43,2.89
		l-2.34,1.74L248.67,399.08z M325.24,322.27l-0.71,2.83l-2.83,0.71l-15.22-15.22l-13.45-10.62l1.41-4.96l4.96-1.41l10.62,13.45
		L325.24,322.27z M320.93,274.67l2.05-4.73l5.1-0.76l8.77,14.72l13.1,17.08l-1.07,2.71l-2.9,0.33l-13.1-17.08L320.93,274.67z
		 M303.52,346.6l-0.33,2.9l-2.71,1.07l-17.08-13.1l-14.72-8.77l0.76-5.1l4.73-2.05l12.28,11.95L303.52,346.6z M285.16,373.56
		l0.05,2.92l-2.55,1.42l-18.64-10.76l-15.74-6.78l0.08-5.15l4.42-2.65l13.74,10.24L285.16,373.56z M475.27,263l-6.61,47.57
		c-37.39,6.14-71.83,23.11-99.69,49.14l-37.37-28.11l28.26,37.2c-26.12,27.89-43.14,62.39-49.3,99.85L263,475.27
		C274.54,363.42,363.42,274.54,475.27,263z M351.9,253.23l2.65-4.42l5.15-0.08l6.77,15.74l10.76,18.64l-1.42,2.55l-2.92-0.05
		l-10.76-18.64L351.9,253.23z M385.39,236.01l3.2-4.04l5.12,0.59l4.66,16.49l8.24,19.89l-1.74,2.34l-2.89-0.43l-8.24-19.89
		L385.39,236.01z M420.85,223.31l3.7-3.59l5,1.25l2.47,16.96l5.57,20.79l-2.03,2.1l-2.81-0.8l-5.57-20.79L420.85,223.31z
		 M457.67,215.34l4.14-3.07l4.79,1.9l0.24,17.13l2.81,21.34l-2.29,1.81l-2.68-1.16l-2.81-21.34L457.67,215.34z M395.02,394
		c-2.53,2.5-4.98,5.09-7.31,7.77l-44.69-58.81l2.03,1.53l-0.05,0.59l0.76-0.06l2.91,2.19l-0.11,1.41l1.8-0.14l1.93,1.45l-0.17,2.23
		l2.38-0.18l0.21-0.23l1.59,1.2l-0.44,0.39l-0.18,2.36l2.38-0.18l0.67-0.75l1.66,1.25l-0.96,0.86l-0.18,2.37l2.38-0.18l1.13-1.26
		l1.72,1.3l-1.49,1.32l-0.18,2.37l2.38-0.18l1.59-1.78l1.13,0.85l-1.93,1.71l-0.18,2.37l2.38-0.18l1.98-2.21l1.84,1.38l-2.46,2.18
		l-0.18,2.37l2.38-0.18l2.2-2.46c0.08-0.09,0.16-0.18,0.25-0.27l1.89,1.42c-0.17,0.15-0.33,0.31-0.5,0.46l-2.48,2.2l-0.18,2.37
		l2.38-0.18l2.21-2.47c0.23-0.26,0.47-0.51,0.71-0.77l1.94,1.46c-0.34,0.31-0.68,0.63-1.02,0.93l-2.48,2.2l-0.18,2.36l2.38-0.18
		l2.21-2.47c0.39-0.43,0.78-0.85,1.18-1.28l1.99,1.5c-0.51,0.47-1.02,0.94-1.54,1.4l-2.48,2.2L380,379.9l2.38-0.18l2.2-2.46
		c0.54-0.61,1.1-1.2,1.65-1.8l2.04,1.54c-0.68,0.63-1.36,1.26-2.06,1.88l-2.48,2.2l-0.18,2.37l2.38-0.18l2.2-2.46
		c0.7-0.78,1.41-1.54,2.13-2.31l2.09,1.57c-0.86,0.79-1.71,1.58-2.58,2.35l-2.48,2.2l-0.18,2.37l2.38-0.18l2.21-2.47
		c0.85-0.95,1.72-1.88,2.59-2.81l2.14,1.61c-1.03,0.95-2.05,1.9-3.09,2.82l-2.48,2.2l-0.18,2.36l2.38-0.18l2.21-2.47
		c1-1.12,2.03-2.22,3.06-3.32l2.19,1.65c-1.2,1.11-2.4,2.21-3.62,3.29l-2.48,2.2l-0.18,2.37L395.02,394z M354.87,464.84
		c-2.13,8.78-3.44,17.76-3.95,26.81l-0.03-0.48c-0.49-8.52-0.74-17.08-0.83-25.66L354.87,464.84z M510.49,351.06
		c7.98-0.43,16-0.67,24.03-0.75l0.63,4.56C527.07,352.91,518.81,351.65,510.49,351.06z M609.11,388.16l-2.48-2.2
		c-1.04-0.92-2.07-1.88-3.09-2.82l2.14-1.61c0.87,0.93,1.74,1.86,2.59,2.81l2.21,2.47l2.38,0.18l-0.18-2.37l-2.48-2.2
		c-0.87-0.77-1.72-1.56-2.58-2.35l2.09-1.57c0.71,0.77,1.43,1.53,2.13,2.31l2.2,2.46l2.38,0.18l-0.18-2.37l-2.48-2.2
		c-0.69-0.61-1.37-1.25-2.06-1.88l2.04-1.54c0.55,0.6,1.11,1.19,1.65,1.8l2.2,2.46l2.38,0.18l-0.18-2.37l-2.48-2.2
		c-0.52-0.46-1.03-0.93-1.54-1.4l1.99-1.5c0.4,0.42,0.79,0.85,1.18,1.28l2.21,2.47l2.38,0.18l-0.18-2.36l-2.48-2.2
		c-0.34-0.3-0.68-0.62-1.02-0.93l1.94-1.46c0.24,0.26,0.48,0.51,0.71,0.77l2.21,2.47l2.38,0.18l-0.18-2.37l-2.48-2.2
		c-0.17-0.15-0.33-0.3-0.5-0.46l1.89-1.42c0.08,0.09,0.17,0.18,0.25,0.27l2.2,2.46l2.38,0.18l-0.18-2.37l-2.46-2.18l1.84-1.38
		l1.98,2.21l2.38,0.18l-0.18-2.37l-1.93-1.71l1.13-0.85l1.59,1.78l2.38,0.18l-0.18-2.37l-1.49-1.32l1.72-1.3l1.13,1.26l2.38,0.18
		l-0.18-2.37l-0.97-0.86l1.66-1.25l0.67,0.75l2.38,0.18l-0.18-2.36l-0.44-0.39l1.59-1.2l0.21,0.23l2.38,0.18l-0.17-2.23l1.93-1.45
		l1.8,0.14l-0.11-1.41l2.91-2.19l0.76,0.06l-0.04-0.59l2.03-1.53l-44.69,58.81c-2.33-2.68-4.78-5.27-7.31-7.77l0.79,0.06l-0.18-2.37
		l-2.48-2.2c-1.22-1.08-2.42-2.19-3.62-3.29l2.19-1.65c1.03,1.1,2.06,2.2,3.06,3.32l2.21,2.47l2.38,0.18L609.11,388.16z
		 M640.11,368.78l28.24-37.17l-37.34,28.09c-27.86-26.02-62.29-42.99-99.67-49.13L524.73,263
		C636.58,274.54,725.46,363.42,737,475.27l-47.57-6.61C683.27,431.18,666.24,396.67,640.11,368.78z M529.78,252.57l2.81-21.34
		l0.24-17.13l4.79-1.89l4.14,3.07l-4.21,16.61l-2.81,21.34l-2.68,1.16L529.78,252.57z M561.84,258.57l5.57-20.79l2.47-16.96l5-1.25
		l3.7,3.59l-6.34,15.92l-5.57,20.79l-2.81,0.8L561.84,258.57z M592.84,268.71l8.24-19.89l4.66-16.49l5.12-0.59l3.2,4.04l-8.36,14.96
		l-8.24,19.89l-2.89,0.43L592.84,268.71z M622.26,282.81l10.76-18.64l6.78-15.74l5.15,0.08l2.65,4.42l-10.24,13.74l-10.76,18.64
		l-2.92,0.05L622.26,282.81z M716.25,337.01l-17.08,13.1l-2.71-1.07l-0.33-2.9l17.08-13.1l12.28-11.95l4.73,2.05l0.76,5.1
		L716.25,337.01z M733.19,362.29l13.74-10.24l4.42,2.65l0.08,5.15l-15.74,6.78l-18.64,10.76l-2.55-1.42l0.05-2.92L733.19,362.29z
		 M693.1,310.18l-15.22,15.22l-2.83-0.71l-0.71-2.83l15.22-15.22l10.62-13.45l4.96,1.41l1.41,4.96L693.1,310.18z M666.66,286.6
		l-13.11,17.08l-2.9-0.33l-1.07-2.71l13.11-17.08l8.77-14.72l5.1,0.76l2.05,4.73L666.66,286.6z M731.22,406.77l-2.34-1.74l0.43-2.89
		l19.89-8.24l14.96-8.36l4.04,3.2l-0.59,5.12l-16.49,4.66L731.22,406.77z M740.13,432.92l20.79-5.57l15.92-6.34l3.59,3.7l-1.25,5
		l-16.96,2.47l-20.79,5.57l-2.1-2.03L740.13,432.92z M746.85,464.84l21.34-2.81l16.61-4.21l3.07,4.14l-1.89,4.79l-17.13,0.24
		l-21.34,2.81l-1.81-2.29L746.85,464.84z M500,101.81l0.18,1.33l-0.42,0.36L500,101.81z M499.66,104.24l0.77,0.66l0.89,6.38
		l-2.04,1.75l2.59,2.23l0.58,4.17l-3.17,2.72l3.28,2.82l0.66-0.04l0.5,3.59l-1.16-0.07l-3.28,2.82l3.28,2.82l1.91-0.11l0.52,3.74
		l-2.43-0.14l-3.28,2.82l3.28,2.82l3.17-0.18l0.54,3.89l-3.71-0.21l-3.28,2.82l3.28,2.82l4.43-0.26l0.56,4.03l-4.99-0.29l-3.28,2.82
		l3.28,2.82l5.68-0.33l0.37,2.7c-0.02,0-0.03,0-0.05,0l-6.01-0.35l-3.28,2.82l3.28,2.82l5.99-0.35c0.25-0.01,0.5-0.02,0.75-0.03
		l0.59,4.27c-0.44-0.02-0.88-0.03-1.32-0.06l-6.01-0.35l-3.28,2.82l3.28,2.82l5.99-0.35c0.67-0.04,1.34-0.06,2.01-0.09l0.61,4.38
		c-0.87-0.03-1.74-0.06-2.6-0.11l-6.01-0.35l-3.28,2.82l3.28,2.82l6.01-0.35c1.08-0.06,2.17-0.1,3.25-0.14l0.62,4.49
		c-1.29-0.05-2.59-0.09-3.87-0.17l-6.01-0.35l-3.28,2.82l3.28,2.82l6.01-0.35c1.5-0.09,3.01-0.13,4.51-0.2l0.64,4.61
		c-1.72-0.07-3.44-0.13-5.15-0.23l-6.01-0.35l-3.28,2.82l3.28,2.82l5.99-0.35c1.92-0.11,3.86-0.17,5.79-0.25l0.66,4.72
		c-2.14-0.09-4.29-0.16-6.42-0.28l-6.01-0.35l-3.28,2.82l3.28,2.82l5.99-0.35c2.34-0.14,4.7-0.21,7.05-0.31l0.67,4.83
		c-2.57-0.1-5.14-0.19-7.7-0.34l-6.01-0.35l-3.28,2.82l3.28,2.82l6.01-0.35c2.75-0.16,5.52-0.25,8.29-0.36l0.69,4.94
		c-2.99-0.12-5.99-0.22-8.97-0.39l-6.01-0.35l-3.28,2.82l3.28,2.82l6.01-0.35c3.17-0.18,6.36-0.3,9.55-0.42l0.7,5.06
		c-3.42-0.13-6.84-0.26-10.25-0.46l-6.01-0.35l-3.28,2.82l3.28,2.82l5.99-0.35c3.6-0.21,7.21-0.35,10.82-0.48l0.72,5.17
		c-3.85-0.14-7.69-0.29-11.52-0.51l-6.01-0.35l-3.28,2.82l3.28,2.82l5.99-0.35c4.02-0.23,8.05-0.39,12.08-0.53l0.73,5.27
		c-4.27-0.14-8.54-0.31-12.8-0.56l-6.01-0.35l-3.28,2.82l3.28,2.82l6.01-0.35c4.43-0.26,8.87-0.44,13.32-0.58l0.75,5.38
		c-4.7-0.15-9.39-0.34-14.07-0.62l-6.01-0.35l-3.28,2.82l3.28,2.82l6.01-0.35c4.85-0.28,9.71-0.49,14.58-0.64l0.76,5.47
		c-5.13-0.15-10.24-0.35-15.34-0.64l-6.01-0.35l-3.28,2.82l3.28,2.82l5.99-0.35c5.27-0.31,10.57-0.51,15.87-0.66l0.77,5.51
		c-5.55-0.15-11.09-0.35-16.61-0.67l-6.01-0.35l-3.28,2.82l3.28,2.82l5.99-0.35c5.69-0.33,11.41-0.54,17.13-0.69l0.77,5.56
		c-5.97-0.14-11.94-0.35-17.88-0.7l-6.01-0.35l-3.28,2.82l3.28,2.82l6.01-0.35c6.1-0.35,12.24-0.56,18.38-0.7l0.78,5.6
		c-6.4-0.14-12.79-0.35-19.15-0.72l-6.01-0.35l-3.28,2.82l3.28,2.82l6.01-0.35c6.52-0.38,13.08-0.59,19.64-0.72l0.78,5.64
		c-6.82-0.13-13.64-0.35-20.42-0.74l-6.01-0.35l-3.28,2.82l3.28,2.82l5.99-0.35c6.95-0.4,13.93-0.62,20.92-0.75l0.79,5.69
		c-7.25-0.12-14.49-0.34-21.69-0.76l-6.01-0.35l-3.28,2.82l3.28,2.82l5.99-0.35c7.37-0.43,14.77-0.64,22.19-0.77l0.8,5.72
		c-7.67-0.11-15.34-0.33-22.96-0.78l-6.01-0.35l-3.28,2.82l3.28,2.82l6.01-0.35c7.78-0.45,15.6-0.67,23.43-0.78l0.8,5.76
		c-8.1-0.1-16.19-0.33-24.23-0.8l-6.01-0.35l-3.28,2.82l3.28,2.82l6.01-0.35c8.2-0.47,16.44-0.7,24.7-0.8l0.81,5.82
		c-8.52-0.09-17.04-0.34-25.5-0.83l-6.01-0.35l-3.28,2.82l2.36,2.03c-0.54-0.01-1.09-0.02-1.63-0.02c-11.86,0-23.68,1.41-35.16,4.19
		L499.66,104.24z M484.91,193.59l-0.92,6.6C331.15,208.26,208.26,331.15,200.19,484l-6.6,0.92
		C201.24,327.72,327.72,201.24,484.91,193.59z M101.81,500l1.31-0.18l0.36,0.41L101.81,500z M103.79,500.28l0.54-0.63l6.94-0.96
		l1.5,1.75l1.91-2.23l4.73-0.66l2.48,2.88l2.82-3.28l-0.02-0.34l3.56-0.49l-0.05,0.83l2.82,3.28l2.82-3.28l-0.09-1.59l3.7-0.51
		l-0.12,2.11l2.82,3.28l2.82-3.28l-0.17-2.85l3.85-0.53l-0.2,3.39l2.82,3.28l2.82-3.28l-0.24-4.11l4-0.56l-0.27,4.66l2.82,3.28
		l2.82-3.28l-0.31-5.37l2.66-0.37l-0.33,5.73l2.82,3.28l2.82-3.28l-0.35-5.99c-0.01-0.14-0.01-0.29-0.02-0.43l4.24-0.59
		c-0.01,0.33-0.02,0.67-0.04,1l-0.35,6.01l2.82,3.28l2.82-3.28l-0.35-5.99c-0.03-0.56-0.05-1.13-0.07-1.69l4.35-0.6
		c-0.03,0.76-0.05,1.52-0.1,2.28l-0.35,6.01l2.82,3.28l2.82-3.28l-0.35-6.01c-0.06-0.97-0.09-1.95-0.13-2.93l4.46-0.62
		c-0.05,1.18-0.09,2.37-0.15,3.55l-0.35,6.01l2.82,3.28l2.82-3.28l-0.35-6.01c-0.08-1.39-0.13-2.79-0.18-4.19l4.58-0.64
		c-0.07,1.61-0.12,3.22-0.21,4.83l-0.35,6.01l2.82,3.28l2.82-3.28l-0.35-5.99c-0.11-1.82-0.17-3.64-0.24-5.47l4.69-0.65
		c-0.08,2.04-0.15,4.07-0.27,6.1l-0.35,6.01l2.82,3.28l2.82-3.28l-0.35-5.99c-0.13-2.24-0.21-4.48-0.3-6.73l4.8-0.67
		c-0.1,2.46-0.18,4.92-0.32,7.38l-0.35,6.01l2.82,3.28l2.82-3.28l-0.35-6.01c-0.15-2.65-0.25-5.31-0.35-7.97l4.91-0.68
		c-0.11,2.89-0.21,5.77-0.38,8.65l-0.35,6.01l2.82,3.28l2.82-3.28l-0.35-6.01c-0.18-3.07-0.29-6.15-0.41-9.23l5.03-0.7
		c-0.12,3.31-0.25,6.63-0.44,9.93l-0.35,6.01l2.82,3.28l2.82-3.28l-0.35-5.99c-0.2-3.49-0.34-7-0.47-10.51l5.14-0.71
		c-0.13,3.74-0.28,7.48-0.49,11.2l-0.35,6.01l2.82,3.28l2.82-3.28l-0.35-5.99c-0.23-3.91-0.38-7.84-0.52-11.77l5.25-0.73
		c-0.14,4.17-0.31,8.33-0.55,12.47l-0.35,6.01l2.82,3.28l2.82-3.28l-0.35-6.01c-0.25-4.32-0.43-8.66-0.57-13l5.36-0.74
		c-0.15,4.59-0.34,9.18-0.6,13.75l-0.35,6.01l2.82,3.28l2.82-3.28l-0.35-6.01c-0.27-4.74-0.48-9.5-0.63-14.26l5.44-0.76
		c-0.15,5.02-0.34,10.03-0.63,15.02l-0.35,6.01l2.82,3.28l2.82-3.28l-0.35-5.99c-0.3-5.17-0.5-10.35-0.65-15.55l5.49-0.76
		c-0.15,5.44-0.35,10.88-0.66,16.29l-0.35,6.01l2.82,3.28l2.82-3.28l-0.35-5.99c-0.32-5.59-0.53-11.2-0.68-16.81l5.54-0.77
		c-0.14,5.87-0.35,11.73-0.69,17.56l-0.35,6.01l2.82,3.28l2.82-3.28l-0.35-6.01c-0.35-6-0.55-12.02-0.69-18.06l5.58-0.78
		c-0.14,6.29-0.35,12.58-0.71,18.83l-0.35,6.01l2.82,3.28l2.82-3.28l-0.35-6.01c-0.37-6.42-0.58-12.86-0.71-19.32l5.63-0.78
		c-0.13,6.72-0.34,13.43-0.73,20.1l-0.35,6.01l2.82,3.28l2.82-3.28l-0.35-5.99c-0.4-6.84-0.61-13.72-0.74-20.6l5.67-0.79
		c-0.13,7.14-0.34,14.27-0.75,21.37l-0.35,6.01l2.82,3.28l2.82-3.28l-0.35-5.99c-0.42-7.26-0.64-14.56-0.76-21.87l5.71-0.79
		c-0.12,7.57-0.33,15.12-0.77,22.64l-0.35,6.01l2.82,3.28l2.82-3.28l-0.35-6.01c-0.44-7.67-0.66-15.39-0.78-23.11l5.75-0.8
		c-0.1,7.99-0.33,15.97-0.79,23.91l-0.35,6.01l2.82,3.28l2.82-3.28l-0.35-6.01c-0.47-8.09-0.7-16.23-0.8-24.38l5.8-0.81
		c-0.09,8.42-0.34,16.82-0.82,25.18l-0.35,6.01l2.82,3.28l2.29-2.67c-0.01,0.74-0.03,1.49-0.03,2.23c0,11.86,1.41,23.68,4.19,35.16
		l-154.59-21.48L103.79,500.28z M193.59,515.09l6.6,0.92C208.25,668.85,331.15,791.74,484,799.81l0.92,6.6
		C327.72,798.76,201.24,672.28,193.59,515.09z M500,898.19l-0.25-1.77l0.47-0.4l-0.6-0.51l-1-7.23l1.6-1.38l-2.04-1.75l-0.7-5.02
		l2.73-2.35l-3.28-2.82l-0.17,0.01l-0.49-3.54l0.66,0.04l3.28-2.82l-3.28-2.82l-1.43,0.08l-0.51-3.68l1.94,0.11l3.28-2.82
		l-3.28-2.82l-2.69,0.16l-0.53-3.83l3.22,0.19l3.28-2.82l-3.28-2.82l-3.94,0.23l-0.55-3.98l4.5,0.26l3.28-2.82l-3.28-2.82l-5.2,0.3
		l-0.37-2.64l5.57,0.32l3.28-2.82l-3.28-2.82l-5.99,0.35c-0.09,0.01-0.18,0.01-0.27,0.01l-0.59-4.23c0.28,0.01,0.56,0.02,0.83,0.04
		l6.01,0.35l3.28-2.82l-3.28-2.82l-5.99,0.35c-0.51,0.03-1.02,0.05-1.53,0.07l-0.6-4.34c0.7,0.03,1.41,0.05,2.11,0.09l6.01,0.35
		l3.28-2.82l-3.28-2.82l-6.01,0.35c-0.92,0.05-1.84,0.08-2.77,0.12l-0.62-4.45c1.13,0.04,2.26,0.08,3.38,0.15l6.01,0.35l3.28-2.82
		l-3.28-2.82l-6.01,0.35c-1.34,0.08-2.68,0.12-4.02,0.17l-0.63-4.56c1.55,0.06,3.11,0.12,4.66,0.21l6.01,0.35l3.28-2.82l-3.28-2.82
		l-5.99,0.35c-1.76,0.1-3.53,0.16-5.3,0.23l-0.65-4.68c1.98,0.08,3.96,0.15,5.93,0.26l6.01,0.35l3.28-2.82l-3.28-2.82l-5.99,0.35
		c-2.18,0.13-4.37,0.2-6.56,0.29l-0.67-4.79c2.41,0.09,4.81,0.18,7.21,0.32l6.01,0.35l3.28-2.82l-3.28-2.82l-6.01,0.35
		c-2.59,0.15-5.2,0.24-7.8,0.34l-0.68-4.9c2.83,0.11,5.66,0.21,8.48,0.37l6.01,0.35l3.28-2.82l-3.28-2.82l-6.01,0.35
		c-3.01,0.17-6.04,0.28-9.06,0.4l-0.7-5.02c3.26,0.12,6.51,0.25,9.76,0.44l6.01,0.35l3.28-2.82l-3.28-2.82l-5.99,0.35
		c-3.44,0.2-6.89,0.34-10.34,0.46l-0.71-5.13c3.68,0.13,7.36,0.28,11.03,0.49l6.01,0.35l3.28-2.82l-3.28-2.82l-5.99,0.35
		c-3.86,0.22-7.73,0.38-11.6,0.51l-0.73-5.23c4.11,0.14,8.22,0.31,12.31,0.54l6.01,0.35l3.28-2.82l-3.28-2.82l-6.01,0.35
		c-4.27,0.25-8.55,0.42-12.84,0.56l-0.74-5.35c4.54,0.15,9.07,0.34,13.58,0.6l6.01,0.35l3.28-2.82l-3.28-2.82l-6.01,0.35
		c-4.69,0.27-9.39,0.47-14.1,0.62l-0.75-5.43c4.96,0.15,9.92,0.34,14.85,0.63l6.01,0.35l3.28-2.82l-3.28-2.82l-5.99,0.35
		c-5.11,0.3-10.24,0.49-15.38,0.64l-0.76-5.48c5.39,0.15,10.77,0.35,16.12,0.66l6.01,0.35l3.28-2.82l-3.28-2.82l-5.99,0.35
		c-5.53,0.32-11.08,0.52-16.65,0.67l-0.77-5.53c5.81,0.14,11.61,0.35,17.39,0.68l6.01,0.35l3.28-2.82l-3.28-2.82l-6.01,0.35
		c-5.94,0.34-11.91,0.55-17.89,0.69l-0.77-5.58c6.24,0.14,12.46,0.34,18.66,0.7l6.01,0.35l3.28-2.82l-3.28-2.82l-6.01,0.35
		c-6.36,0.37-12.75,0.57-19.15,0.71l-0.78-5.62c6.66,0.13,13.31,0.34,19.93,0.73l6.01,0.35l3.28-2.82l-3.28-2.82l-5.99,0.35
		c-6.79,0.39-13.61,0.6-20.44,0.74l-0.79-5.66c7.09,0.13,14.16,0.34,21.2,0.75l6.01,0.35l3.28-2.82l-3.28-2.82l-5.99,0.35
		c-7.21,0.42-14.45,0.63-21.7,0.75l-0.79-5.7c7.51,0.12,15.01,0.33,22.47,0.76l6.01,0.35l3.28-2.82l-3.28-2.82l-6.01,0.35
		c-7.62,0.44-15.28,0.66-22.95,0.77l-0.8-5.74c7.93,0.11,15.86,0.33,23.74,0.79l6.01,0.35l3.28-2.82l-3.28-2.82l-6.01,0.35
		c-8.04,0.46-16.12,0.69-24.21,0.79l-0.81-5.8c8.36,0.09,16.71,0.34,25.01,0.82l6.01,0.35l3.28-2.82l-2.3-1.98
		c12.53,0.17,25.08-1.2,37.24-4.14L500,898.19z M515.09,806.41l0.92-6.6C668.85,791.75,791.75,668.85,799.81,516l6.6-0.92
		C798.76,672.28,672.28,798.76,515.09,806.41z M895.07,500.43l-6.66,0.93l-1.63-1.89l-2.07,2.41l-4.46,0.62l-2.6-3.02l-2.82,3.28
		l0.03,0.49l-3.57,0.5l0.06-0.99l-2.82-3.28l-2.82,3.28l0.1,1.75l-3.72,0.52l0.13-2.27l-2.82-3.28l-2.82,3.28l0.17,3.01l-3.87,0.54
		l0.2-3.55l-2.82-3.28l-2.82,3.28l0.25,4.27l-4.01,0.56l0.28-4.82l-2.82-3.28l-2.82,3.28l0.32,5.52l-2.68,0.37l0.34-5.89l-2.82-3.28
		l-2.82,3.28l0.35,5.99c0.01,0.2,0.02,0.39,0.03,0.59l-4.26,0.59c0.01-0.39,0.03-0.77,0.05-1.16l0.35-6.01l-2.82-3.28l-2.82,3.28
		l0.35,5.99c0.04,0.61,0.06,1.23,0.08,1.85l-4.37,0.61c0.03-0.81,0.06-1.63,0.11-2.44l0.35-6.01l-2.82-3.28l-2.82,3.28l0.35,6.01
		c0.06,1.03,0.09,2.06,0.13,3.09l-4.48,0.62c0.05-1.24,0.09-2.48,0.16-3.71l0.35-6.01l-2.82-3.28l-2.82,3.28l0.35,6.01
		c0.08,1.45,0.13,2.9,0.19,4.35l-4.59,0.64c0.07-1.66,0.12-3.33,0.22-4.98l0.35-6.01l-2.82-3.28l-2.82,3.28l0.35,5.99
		c0.11,1.87,0.17,3.75,0.25,5.63l-4.71,0.65c0.08-2.09,0.16-4.18,0.28-6.26l0.35-6.01l-2.82-3.28l-2.82,3.28l0.35,5.99
		c0.13,2.29,0.21,4.59,0.3,6.89l-4.82,0.67c0.1-2.51,0.19-5.03,0.33-7.53l0.35-6.01l-2.82-3.28l-2.82,3.28l0.35,6.01
		c0.16,2.7,0.25,5.41,0.36,8.12l-4.93,0.68c0.11-2.94,0.22-5.88,0.39-8.81l0.35-6.01l-2.82-3.28l-2.82,3.28l0.35,6.01
		c0.18,3.12,0.29,6.25,0.41,9.38l-5.04,0.7c0.13-3.37,0.26-6.73,0.45-10.08l0.35-6.01l-2.82-3.28l-2.82,3.28l0.35,5.99
		c0.21,3.55,0.34,7.1,0.47,10.66l-5.16,0.72c0.13-3.79,0.28-7.58,0.5-11.36l0.35-6.01l-2.82-3.28l-2.82,3.28l0.35,5.99
		c0.23,3.96,0.39,7.94,0.52,11.92l-5.26,0.73c0.14-4.22,0.31-8.43,0.55-12.63l0.35-6.01l-2.82-3.28l-2.82,3.28l0.35,6.01
		c0.25,4.38,0.43,8.77,0.58,13.16l-5.37,0.75c0.15-4.65,0.34-9.28,0.61-13.91l0.35-6.01l-2.82-3.28l-2.82,3.28l0.35,6.01
		c0.28,4.79,0.48,9.6,0.63,14.42l-5.45,0.76c0.15-5.07,0.35-10.13,0.64-15.18l0.35-6.01l-2.82-3.28l-2.82,3.28l0.35,5.99
		c0.3,5.22,0.5,10.46,0.65,15.71l-5.5,0.76c0.15-5.5,0.35-10.98,0.67-16.45l0.35-6.01l-2.82-3.28l-2.82,3.28l0.35,5.99
		c0.33,5.64,0.53,11.3,0.68,16.97l-5.55,0.77c0.14-5.92,0.35-11.83,0.69-17.72l0.35-6.01l-2.82-3.28l-2.82,3.28l0.35,6.01
		c0.35,6.05,0.56,12.13,0.7,18.21l-5.59,0.78c0.14-6.34,0.35-12.68,0.71-18.99l0.35-6.01l-2.82-3.28l-2.82,3.28l0.35,6.01
		c0.37,6.47,0.58,12.97,0.72,19.48l-5.64,0.78c0.13-6.77,0.35-13.53,0.73-20.26l0.35-6.01l-2.82-3.28l-2.82,3.28l0.35,5.99
		c0.4,6.89,0.61,13.82,0.74,20.76l-5.68,0.79c0.12-7.19,0.34-14.38,0.75-21.53l0.35-6.01l-2.82-3.28l-2.82,3.28l0.35,5.99
		c0.42,7.31,0.64,14.66,0.76,22.02l-5.72,0.79c0.11-7.62,0.33-15.23,0.77-22.8l0.35-6.01l-2.82-3.28l-2.82,3.28l0.35,6.01
		c0.45,7.73,0.67,15.49,0.78,23.27l-5.75,0.8c0.1-8.04,0.33-16.08,0.79-24.07l0.35-6.01l-2.82-3.28l-2.82,3.28l0.35,6.01
		c0.47,8.14,0.7,16.33,0.8,24.53l-5.81,0.81c0.09-8.47,0.34-16.93,0.83-25.34l0.35-6.01l-2.82-3.28l-1.84,2.13
		c0.01-0.53,0.02-1.07,0.02-1.6c0-11.85-1.41-23.67-4.19-35.16l250.6,34.82L895.07,500.43z M896.11,499.71l2.08,0.29l-1.64,0.23
		L896.11,499.71z"/>
	<polygon class="st0" points="446.51,310.58 448.92,311.27 450.67,309.47 445.88,291.58 443.75,276.99 439.45,275.92 436.26,279 
		441.72,292.7 	"/>
	<polygon class="st0" points="399.31,330.88 401.82,330.92 403.04,328.73 393.78,312.69 387.95,299.15 383.52,299.22 381.24,303.03 
		390.05,314.84 	"/>
	<polygon class="st0" points="328.24,403.88 330.43,402.67 330.39,400.16 314.35,390.9 302.54,382.09 298.73,384.36 298.66,388.8 
		312.2,394.63 	"/>
	<polygon class="st0" points="310.33,447.46 292.44,442.66 278.75,437.21 275.66,440.4 276.74,444.7 291.33,446.82 309.21,451.62 
		311.02,449.87 	"/>
	<polygon class="st0" points="311.27,551.08 309.47,549.33 291.58,554.12 276.99,556.25 275.92,560.55 279,563.74 292.7,558.28 
		310.58,553.49 	"/>
	<polygon class="st0" points="312.69,606.22 299.15,612.05 299.22,616.48 303.03,618.76 314.84,609.95 330.88,600.69 330.92,598.18 
		328.73,596.96 	"/>
	<polygon class="st0" points="400.16,669.61 390.9,685.65 382.09,697.46 384.36,701.27 388.8,701.34 394.63,687.8 403.88,671.76 
		402.67,669.57 	"/>
	<polygon class="st0" points="447.46,689.67 442.66,707.56 437.21,721.25 440.4,724.34 444.7,723.26 446.82,708.67 451.62,690.79 
		449.87,688.98 	"/>
	<polygon class="st0" points="553.49,689.42 551.08,688.73 549.33,690.53 554.12,708.42 556.25,723 560.55,724.08 563.74,721 
		558.28,707.3 	"/>
	<polygon class="st0" points="600.69,669.12 598.18,669.08 596.96,671.27 606.22,687.31 612.05,700.85 616.48,700.78 618.76,696.97 
		609.95,685.16 	"/>
	<polygon class="st0" points="671.76,596.11 669.57,597.33 669.61,599.84 685.65,609.1 697.46,617.91 701.27,615.63 701.34,611.2 
		687.8,605.37 	"/>
	<polygon class="st0" points="689.67,552.54 707.56,557.34 721.25,562.79 724.34,559.6 723.26,555.3 708.67,553.18 690.79,548.38 
		688.98,550.13 	"/>
	<polygon class="st0" points="708.42,445.88 723,443.75 724.08,439.45 721,436.26 707.3,441.72 689.42,446.51 688.73,448.92 
		690.53,450.67 	"/>
	<polygon class="st0" points="700.78,383.52 696.97,381.24 685.16,390.05 669.12,399.31 669.08,401.82 671.27,403.04 687.31,393.78 
		700.85,387.95 	"/>
	<polygon class="st0" points="611.2,298.66 605.37,312.2 596.11,328.24 597.33,330.43 599.84,330.39 609.1,314.35 617.91,302.54 
		615.64,298.73 	"/>
	<polygon class="st0" points="555.3,276.74 553.18,291.33 548.38,309.21 550.13,311.02 552.54,310.33 557.34,292.44 562.79,278.75 
		559.6,275.66 	"/>
</g>
</svg>
